# WaveFront *.obj file (generated by Autodesk ATF)

mtllib holder_4_50x100mm_bottle_42 mm_s.mtl

g Body1

v -4.000000 37.500000 -10.000000
v -4.000000 24.171264 -10.000000
v -4.000000 24.171264 0.000000
v -4.000000 37.500000 0.000000
v -37.500000 37.500000 0.000000
v -37.500000 37.500000 -10.000000
v -37.500000 4.000000 -10.000000
v -24.171264 4.000000 -10.000000
v -22.831973 8.885438 -10.000000
v -20.516596 13.391016 -10.000000
v -17.324116 17.324116 -10.000000
v -13.391016 20.516596 -10.000000
v -8.885438 22.831973 -10.000000
v 4.000000 24.171264 -10.000000
v 8.885438 22.831973 -10.000000
v 13.391016 20.516596 -10.000000
v 17.324116 17.324116 -10.000000
v 20.516596 13.391016 -10.000000
v 22.831973 8.885438 -10.000000
v 24.171264 4.000000 -10.000000
v 37.500000 4.000000 -10.000000
v 37.500000 37.500000 -10.000000
v 4.000000 37.500000 -10.000000
v -24.171264 -4.000000 -10.000000
v -37.500000 -4.000000 -10.000000
v -37.500000 -37.500000 -10.000000
v -4.000000 -37.500000 -10.000000
v -4.000000 -24.171264 -10.000000
v -8.885438 -22.831973 -10.000000
v -13.391016 -20.516596 -10.000000
v -17.324116 -17.324116 -10.000000
v -20.516596 -13.391016 -10.000000
v -22.831973 -8.885438 -10.000000
v -47.500000 47.500000 -10.000000
v 47.500000 47.500000 -10.000000
v 47.500000 -47.500000 -10.000000
v -47.500000 -47.500000 -10.000000
v 0.000000 -17.000000 -10.000000
v 4.227728 -16.465914 -10.000000
v 8.189812 -14.897214 -10.000000
v 11.637301 -12.392467 -10.000000
v 14.353575 -9.109056 -10.000000
v 16.167961 -5.253289 -10.000000
v 16.966454 -1.067439 -10.000000
v 16.698883 3.185482 -10.000000
v 15.382060 7.238248 -10.000000
v 13.098725 10.836208 -10.000000
v 9.992349 13.753289 -10.000000
v 6.258117 15.806200 -10.000000
v 2.130665 16.865950 -10.000000
v -2.130665 16.865950 -10.000000
v -6.258117 15.806200 -10.000000
v -9.992349 13.753289 -10.000000
v -13.098725 10.836208 -10.000000
v -15.382060 7.238248 -10.000000
v -16.698883 3.185482 -10.000000
v -16.966454 -1.067439 -10.000000
v -16.167961 -5.253289 -10.000000
v -14.353575 -9.109056 -10.000000
v -11.637301 -12.392467 -10.000000
v -8.189812 -14.897214 -10.000000
v -4.227728 -16.465914 -10.000000
v 4.000000 -24.171264 -10.000000
v 4.000000 -37.500000 -10.000000
v 37.500000 -37.500000 -10.000000
v 37.500000 -4.000000 -10.000000
v 24.171264 -4.000000 -10.000000
v 22.831973 -8.885438 -10.000000
v 20.516596 -13.391016 -10.000000
v 17.324116 -17.324116 -10.000000
v 13.391016 -20.516596 -10.000000
v 8.885438 -22.831973 -10.000000
v -37.500000 4.000000 0.000000
v -24.171264 4.000000 0.000000
v -1.338662 24.463401 0.000000
v 1.338662 24.463401 0.000000
v 4.000000 24.171264 0.000000
v 4.000000 37.500000 0.000000
v 37.500000 37.500000 0.000000
v 37.500000 4.000000 0.000000
v 24.171264 4.000000 0.000000
v 24.463401 1.338662 0.000000
v 24.463401 -1.338662 0.000000
v 24.171264 -4.000000 0.000000
v 37.500000 -4.000000 0.000000
v 37.500000 -37.500000 0.000000
v 4.000000 -37.500000 0.000000
v 4.000000 -24.171264 0.000000
v 1.338662 -24.463401 0.000000
v -1.338662 -24.463401 0.000000
v -4.000000 -24.171264 0.000000
v -4.000000 -37.500000 0.000000
v -37.500000 -37.500000 0.000000
v -37.500000 -4.000000 0.000000
v -24.171264 -4.000000 0.000000
v -24.463401 -1.338662 0.000000
v -24.463401 1.338662 0.000000
v 47.500000 47.500000 0.000000
v -47.500000 47.500000 0.000000
v -47.500000 -47.500000 0.000000
v 47.500000 -47.500000 0.000000
v -2.000000 21.406775 10.000000
v -2.000000 21.406775 16.000000
v -6.167354 20.596450 16.000000
v -10.094238 18.983054 16.000000
v -13.627541 16.629496 16.000000
v -16.629496 13.627541 16.000000
v -18.983054 10.094238 16.000000
v -20.596450 6.167354 16.000000
v -21.406775 2.000000 16.000000
v -21.406775 2.000000 10.000000
v -20.596450 6.167354 10.000000
v -18.983054 10.094238 10.000000
v -16.629496 13.627541 10.000000
v -13.627541 16.629496 10.000000
v -10.094238 18.983054 10.000000
v -6.167354 20.596450 10.000000
v -2.000000 23.916521 20.000000
v -2.000000 23.916521 10.000000
v -6.724568 23.038667 10.000000
v -11.179545 21.237179 10.000000
v -15.186327 18.584280 10.000000
v -18.584280 15.186327 10.000000
v -21.237179 11.179545 10.000000
v -23.038667 6.724568 10.000000
v -23.916521 2.000000 10.000000
v -23.916521 2.000000 20.000000
v -23.038667 6.724568 20.000000
v -21.237179 11.179545 20.000000
v -18.584280 15.186327 20.000000
v -15.186327 18.584280 20.000000
v -11.179545 21.237179 20.000000
v -6.724568 23.038667 20.000000
v -22.410935 2.000000 20.000000
v -2.000000 22.410935 20.000000
v -6.390262 21.573469 20.000000
v -10.528375 19.884751 20.000000
v -14.251056 17.411416 20.000000
v -17.411416 14.251056 20.000000
v -19.884751 10.528375 20.000000
v -21.573469 6.390262 20.000000
v -21.406775 -2.000000 16.000000
v -20.596450 -6.167354 16.000000
v -18.983054 -10.094238 16.000000
v -16.629496 -13.627541 16.000000
v -13.627541 -16.629496 16.000000
v -10.094238 -18.983054 16.000000
v -6.167354 -20.596450 16.000000
v -2.000000 -21.406775 16.000000
v -2.000000 -21.406775 10.000000
v -6.167354 -20.596450 10.000000
v -10.094238 -18.983054 10.000000
v -13.627541 -16.629496 10.000000
v -16.629496 -13.627541 10.000000
v -18.983054 -10.094238 10.000000
v -20.596450 -6.167354 10.000000
v -21.406775 -2.000000 10.000000
v -22.410935 -2.000000 20.000000
v -21.573469 -6.390262 20.000000
v -19.884751 -10.528375 20.000000
v -17.411416 -14.251056 20.000000
v -14.251056 -17.411416 20.000000
v -10.528375 -19.884751 20.000000
v -6.390262 -21.573469 20.000000
v -2.000000 -22.410935 20.000000
v -2.000000 -23.916521 20.000000
v -2.000000 -23.916521 10.000000
v -23.916521 -2.000000 10.000000
v -23.916521 -2.000000 20.000000
v 21.406775 2.000000 16.000000
v 20.596450 6.167354 16.000000
v 18.983054 10.094238 16.000000
v 16.629496 13.627541 16.000000
v 13.627541 16.629496 16.000000
v 10.094238 18.983054 16.000000
v 6.167354 20.596450 16.000000
v 2.000000 21.406775 16.000000
v 2.000000 21.406775 10.000000
v 6.167354 20.596450 10.000000
v 10.094238 18.983054 10.000000
v 13.627541 16.629496 10.000000
v 16.629496 13.627541 10.000000
v 18.983054 10.094238 10.000000
v 20.596450 6.167354 10.000000
v 21.406775 2.000000 10.000000
v 22.410935 2.000000 20.000000
v 21.573469 6.390262 20.000000
v 19.884751 10.528375 20.000000
v 17.411416 14.251056 20.000000
v 14.251056 17.411416 20.000000
v 10.528375 19.884751 20.000000
v 6.390262 21.573469 20.000000
v 2.000000 22.410935 20.000000
v 2.000000 23.916521 20.000000
v 2.000000 23.916521 10.000000
v 23.916521 2.000000 10.000000
v 23.916521 2.000000 20.000000
v 2.000000 -21.406775 10.000000
v 2.000000 -21.406775 16.000000
v 6.167354 -20.596450 16.000000
v 10.094238 -18.983054 16.000000
v 13.627541 -16.629496 16.000000
v 16.629496 -13.627541 16.000000
v 18.983054 -10.094238 16.000000
v 20.596450 -6.167354 16.000000
v 21.406775 -2.000000 16.000000
v 21.406775 -2.000000 10.000000
v 20.596450 -6.167354 10.000000
v 18.983054 -10.094238 10.000000
v 16.629496 -13.627541 10.000000
v 13.627541 -16.629496 10.000000
v 10.094238 -18.983054 10.000000
v 6.167354 -20.596450 10.000000
v 2.000000 -23.916521 20.000000
v 2.000000 -23.916521 10.000000
v 6.724568 -23.038667 10.000000
v 11.179545 -21.237179 10.000000
v 15.186327 -18.584280 10.000000
v 18.584280 -15.186327 10.000000
v 21.237179 -11.179545 10.000000
v 23.038667 -6.724568 10.000000
v 23.916521 -2.000000 10.000000
v 23.916521 -2.000000 20.000000
v 23.038667 -6.724568 20.000000
v 21.237179 -11.179545 20.000000
v 18.584280 -15.186327 20.000000
v 15.186327 -18.584280 20.000000
v 11.179545 -21.237179 20.000000
v 6.724568 -23.038667 20.000000
v 22.410935 -2.000000 20.000000
v 2.000000 -22.410935 20.000000
v 6.390262 -21.573469 20.000000
v 10.528375 -19.884751 20.000000
v 14.251056 -17.411416 20.000000
v 17.411416 -14.251056 20.000000
v 19.884751 -10.528375 20.000000
v 21.573469 -6.390262 20.000000
v 23.038667 6.724568 20.000000
v 21.237179 11.179545 20.000000
v 18.584280 15.186327 20.000000
v 15.186327 18.584280 20.000000
v 11.179545 21.237179 20.000000
v 6.724568 23.038667 20.000000
v 23.038667 6.724568 10.000000
v 21.237179 11.179545 10.000000
v 18.584280 15.186327 10.000000
v 15.186327 18.584280 10.000000
v 11.179545 21.237179 10.000000
v 6.724568 23.038667 10.000000
v -23.038667 -6.724568 20.000000
v -21.237179 -11.179545 20.000000
v -18.584280 -15.186327 20.000000
v -15.186327 -18.584280 20.000000
v -11.179545 -21.237179 20.000000
v -6.724568 -23.038667 20.000000
v -23.038667 -6.724568 10.000000
v -21.237179 -11.179545 10.000000
v -18.584280 -15.186327 10.000000
v -15.186327 -18.584280 10.000000
v -11.179545 -21.237179 10.000000
v -6.724568 -23.038667 10.000000
v 0.000000 -24.500000 10.000000
v -5.093836 -23.964616 10.000000
v -9.965048 -22.381864 10.000000
v -14.400739 -19.820916 10.000000
v -18.207048 -16.393700 10.000000
v -21.217622 -12.250000 10.000000
v -23.300885 -7.570916 10.000000
v -24.365786 -2.560947 10.000000
v -24.365786 2.560947 10.000000
v -23.300885 7.570916 10.000000
v -21.217622 12.250000 10.000000
v -18.207048 16.393700 10.000000
v -14.400739 19.820916 10.000000
v -9.965048 22.381864 10.000000
v -5.093836 23.964616 10.000000
v 0.000000 24.500000 10.000000
v 5.093836 23.964616 10.000000
v 9.965048 22.381864 10.000000
v 14.400739 19.820916 10.000000
v 18.207048 16.393700 10.000000
v 21.217622 12.250000 10.000000
v 23.300885 7.570916 10.000000
v 24.365786 2.560947 10.000000
v 24.365786 -2.560947 10.000000
v 23.300885 -7.570916 10.000000
v 21.217622 -12.250000 10.000000
v 18.207048 -16.393700 10.000000
v 14.400739 -19.820916 10.000000
v 9.965048 -22.381864 10.000000
v 5.093836 -23.964616 10.000000
v 0.000000 -17.000000 10.000000
v -4.227728 -16.465914 10.000000
v -8.189812 -14.897214 10.000000
v -11.637301 -12.392467 10.000000
v -14.353575 -9.109056 10.000000
v -16.167961 -5.253289 10.000000
v -16.966454 -1.067439 10.000000
v -16.698883 3.185482 10.000000
v -15.382060 7.238248 10.000000
v -13.098725 10.836208 10.000000
v -9.992349 13.753289 10.000000
v -6.258117 15.806200 10.000000
v -2.130665 16.865950 10.000000
v 2.130665 16.865950 10.000000
v 6.258117 15.806200 10.000000
v 9.992349 13.753289 10.000000
v 13.098725 10.836208 10.000000
v 15.382060 7.238248 10.000000
v 16.698883 3.185482 10.000000
v 16.966454 -1.067439 10.000000
v 16.167961 -5.253289 10.000000
v 14.353575 -9.109056 10.000000
v 11.637301 -12.392467 10.000000
v 8.189812 -14.897214 10.000000
v 4.227728 -16.465914 10.000000
vt 1.332874 1.000000 0.000000
vt 0.000000 1.000000 0.000000
vt 1.332874 0.000000 0.000000
vt 0.000000 0.000000 0.000000
vt -0.000000 0.000000 0.000000
vt 3.350000 0.000000 0.000000
vt 0.000000 1.000000 0.000000
vt 3.350000 1.000000 0.000000
vt -1.975000 1.375000 0.000000
vt -2.775000 1.375000 0.000000
vt -1.975000 0.042126 0.000000
vt -2.775000 0.042126 0.000000
vt -2.161934 -0.688405 0.000000
vt -2.588066 -0.688405 0.000000
vt -3.000812 -0.794380 0.000000
vt -3.263544 -0.091803 0.000000
vt -3.714102 -0.323340 0.000000
vt 1.375000 1.375000 0.000000
vt 2.375000 2.375000 0.000000
vt -7.125000 2.375000 0.000000
vt -6.125000 1.375000 0.000000
vt -6.125000 -1.975000 0.000000
vt -7.125000 -7.125000 0.000000
vt -6.125000 -2.775000 0.000000
vt -6.125000 -6.125000 0.000000
vt -2.775000 -6.125000 0.000000
vt 2.375000 -7.125000 0.000000
vt -1.975000 -6.125000 0.000000
vt 1.375000 -6.125000 0.000000
vt 1.375000 -2.775000 0.000000
vt 1.375000 -1.975000 0.000000
vt 0.042126 -1.975000 0.000000
vt -0.091803 -1.486456 0.000000
vt -0.705112 -2.056452 0.000000
vt -0.678355 -2.481744 0.000000
vt 0.042126 -2.775000 0.000000
vt -0.758204 -2.900329 0.000000
vt -0.091803 -3.263544 0.000000
vt -0.939643 -3.285906 0.000000
vt -0.323340 -3.714102 0.000000
vt -0.642588 -4.107412 0.000000
vt -1.211270 -3.614247 0.000000
vt -1.035898 -4.426660 0.000000
vt -1.556019 -3.864721 0.000000
vt -1.486456 -4.658197 0.000000
vt -1.952227 -4.021591 0.000000
vt -1.975000 -4.792126 0.000000
vt -2.375000 -4.075000 0.000000
vt -2.775000 -4.792126 0.000000
vt -2.797773 -4.021591 0.000000
vt -3.263544 -4.658197 0.000000
vt -3.193981 -3.864721 0.000000
vt -3.714102 -4.426660 0.000000
vt -3.538730 -3.614247 0.000000
vt -4.107412 -4.107412 0.000000
vt -3.810357 -3.285906 0.000000
vt -4.426660 -3.714102 0.000000
vt -4.658197 -3.263544 0.000000
vt -3.991796 -2.900329 0.000000
vt -4.792126 -2.775000 0.000000
vt -4.071645 -2.481744 0.000000
vt -4.792126 -1.975000 0.000000
vt -4.044888 -2.056452 0.000000
vt -4.658197 -1.486456 0.000000
vt -3.913206 -1.651175 0.000000
vt -4.426660 -1.035898 0.000000
vt -3.684873 -1.291379 0.000000
vt -4.107412 -0.642588 0.000000
vt -3.374235 -0.999671 0.000000
vt -0.836794 -1.651175 0.000000
vt -0.323340 -1.035898 0.000000
vt -1.065127 -1.291379 0.000000
vt -0.642588 -0.642588 0.000000
vt -1.375765 -0.999671 0.000000
vt -1.035898 -0.323340 0.000000
vt -1.749188 -0.794380 0.000000
vt -1.486456 -0.091803 0.000000
vt 1.332874 1.000000 0.000000
vt -0.000000 1.000000 0.000000
vt 1.332874 0.000000 0.000000
vt -0.000000 0.000000 0.000000
vt 1.975000 0.042126 0.000000
vt 2.241134 0.071340 0.000000
vt 1.975000 1.375000 0.000000
vt 2.508866 0.071340 0.000000
vt 2.775000 1.375000 0.000000
vt 2.775000 0.042126 0.000000
vt 6.125000 1.375000 0.000000
vt 7.125000 2.375000 0.000000
vt -2.375000 2.375000 0.000000
vt -1.375000 1.375000 0.000000
vt -1.375000 -1.975000 0.000000
vt -2.375000 -7.125000 0.000000
vt -1.375000 -2.775000 0.000000
vt -1.375000 -6.125000 0.000000
vt 1.975000 -6.125000 0.000000
vt 7.125000 -7.125000 0.000000
vt 2.775000 -6.125000 0.000000
vt 6.125000 -6.125000 0.000000
vt 6.125000 -2.775000 0.000000
vt 6.125000 -1.975000 0.000000
vt 4.821340 -2.241134 0.000000
vt 4.792126 -1.975000 0.000000
vt 4.821340 -2.508866 0.000000
vt 4.792126 -2.775000 0.000000
vt 2.775000 -4.792126 0.000000
vt 2.508866 -4.821340 0.000000
vt 2.241134 -4.821340 0.000000
vt 1.975000 -4.792126 0.000000
vt -0.042126 -2.775000 0.000000
vt -0.071340 -2.508866 0.000000
vt -0.071340 -2.241134 0.000000
vt -0.042126 -1.975000 0.000000
vt 3.350000 1.000000 0.000000
vt 0.000000 1.000000 0.000000
vt 3.350000 0.000000 0.000000
vt 0.000000 0.000000 0.000000
vt -0.000000 1.000000 0.000000
vt -3.350000 1.000000 0.000000
vt -0.000000 0.000000 0.000000
vt -3.350000 0.000000 0.000000
vt -1.332874 0.000000 0.000000
vt -0.000000 -0.000000 0.000000
vt -1.332874 1.000000 0.000000
vt 0.000000 1.000000 0.000000
vt -1.332874 0.000000 0.000000
vt -0.000000 -0.000000 0.000000
vt -1.332874 1.000000 0.000000
vt -0.000000 1.000000 0.000000
vt -3.350000 0.000000 0.000000
vt -0.000000 0.000000 0.000000
vt -3.350000 1.000000 0.000000
vt -0.000000 1.000000 0.000000
vt -0.000000 1.000000 0.000000
vt -3.350000 1.000000 0.000000
vt -0.000000 -0.000000 0.000000
vt -3.350000 0.000000 0.000000
vt -1.332874 0.000000 0.000000
vt -0.000000 0.000000 0.000000
vt -1.332874 1.000000 0.000000
vt 0.000000 1.000000 0.000000
vt -1.332874 0.000000 0.000000
vt 0.000000 -0.000000 0.000000
vt -1.332874 1.000000 0.000000
vt 0.000000 1.000000 0.000000
vt -3.350000 -0.000000 0.000000
vt -0.000000 0.000000 0.000000
vt -3.350000 1.000000 0.000000
vt -0.000000 1.000000 0.000000
vt 1.332874 1.000000 0.000000
vt -0.000000 1.000000 0.000000
vt 1.332874 0.000000 0.000000
vt 0.000000 0.000000 0.000000
vt 0.000000 0.000000 0.000000
vt 3.350000 0.000000 0.000000
vt 0.000000 1.000000 0.000000
vt 3.350000 1.000000 0.000000
vt 1.332874 1.000000 0.000000
vt -0.000000 1.000000 0.000000
vt 1.332874 0.000000 0.000000
vt 0.000000 0.000000 0.000000
vt 3.350000 1.000000 0.000000
vt 0.000000 1.000000 0.000000
vt 3.350000 0.000000 0.000000
vt 0.000000 0.000000 0.000000
vt 0.000000 0.000000 0.000000
vt 9.500000 0.000000 0.000000
vt 0.000000 1.000000 0.000000
vt 9.500000 1.000000 0.000000
vt 4.750000 1.000000 0.000000
vt -4.750000 1.000000 0.000000
vt 4.750000 0.000000 0.000000
vt -4.750000 0.000000 0.000000
vt -0.000000 1.000000 0.000000
vt -9.500000 1.000000 0.000000
vt -0.000000 0.000000 0.000000
vt -9.500000 0.000000 0.000000
vt -4.750000 0.000000 0.000000
vt 4.750000 0.000000 0.000000
vt -4.750000 1.000000 0.000000
vt 4.750000 1.000000 0.000000
vt 0.000000 3.577502 0.000000
vt 0.600000 3.577502 0.000000
vt 0.000000 4.002735 0.000000
vt 0.600000 4.002735 0.000000
vt 0.000000 4.427968 0.000000
vt 0.600000 4.427968 0.000000
vt 0.000000 4.853202 0.000000
vt 0.600000 4.853202 0.000000
vt 0.000000 5.278435 0.000000
vt 0.600000 5.278435 0.000000
vt 0.000000 5.703668 0.000000
vt 0.600000 5.703668 0.000000
vt 0.000000 6.128901 0.000000
vt 0.600000 6.128901 0.000000
vt 0.000000 6.554135 0.000000
vt 0.600000 6.554135 0.000000
vt -1.000000 3.970143 0.000000
vt -0.000000 3.970143 0.000000
vt -1.000000 4.451493 0.000000
vt -0.000000 4.451493 0.000000
vt -1.000000 4.932842 0.000000
vt -0.000000 4.932842 0.000000
vt -1.000000 5.414192 0.000000
vt -0.000000 5.414192 0.000000
vt -1.000000 5.895542 0.000000
vt -0.000000 5.895542 0.000000
vt -1.000000 6.376891 0.000000
vt -0.000000 6.376891 0.000000
vt -1.000000 6.858241 0.000000
vt -0.000000 6.858241 0.000000
vt -1.000000 7.339590 0.000000
vt -0.000000 7.339590 0.000000
vt 0.250975 0.000000 0.000000
vt 0.250975 0.600000 0.000000
vt 0.000000 0.000000 0.000000
vt 0.150559 1.000000 0.000000
vt 0.000000 1.000000 0.000000
vt 0.050223 0.000000 0.000000
vt 0.301198 0.000000 0.000000
vt 0.050223 0.600000 0.000000
vt 0.150639 1.000000 0.000000
vt 0.301198 1.000000 0.000000
vt 0.206155 -0.195814 0.000000
vt -0.206155 -0.204947 0.000000
vt 0.206155 -0.633546 0.000000
vt -0.206155 -0.640070 0.000000
vt 0.206155 -1.071278 0.000000
vt -0.206155 -1.075192 0.000000
vt 0.206155 -1.509010 0.000000
vt -0.206155 -1.510315 0.000000
vt 0.206155 -1.946742 0.000000
vt -0.206155 -1.945437 0.000000
vt -0.206155 -2.380560 0.000000
vt 0.206155 -2.384474 0.000000
vt -0.206155 -2.815682 0.000000
vt 0.206155 -2.822206 0.000000
vt -0.206155 -3.250804 0.000000
vt 0.206155 -3.259938 0.000000
vt -0.000000 6.554135 0.000000
vt -0.600000 6.554135 0.000000
vt -0.000000 6.128901 0.000000
vt -0.600000 6.128901 0.000000
vt -0.000000 5.703668 0.000000
vt -0.600000 5.703668 0.000000
vt -0.000000 5.278435 0.000000
vt -0.600000 5.278435 0.000000
vt -0.000000 4.853202 0.000000
vt -0.600000 4.853202 0.000000
vt -0.000000 4.427968 0.000000
vt -0.600000 4.427968 0.000000
vt -0.000000 4.002735 0.000000
vt -0.600000 4.002735 0.000000
vt -0.000000 3.577502 0.000000
vt -0.600000 3.577502 0.000000
vt -0.206155 -3.259938 0.000000
vt 0.206155 -3.250804 0.000000
vt -0.206155 -2.822206 0.000000
vt 0.206155 -2.815682 0.000000
vt -0.206155 -2.384474 0.000000
vt 0.206155 -2.380560 0.000000
vt -0.206155 -1.946742 0.000000
vt 0.206155 -1.945437 0.000000
vt 0.206155 -1.510315 0.000000
vt -0.206155 -1.509010 0.000000
vt 0.206155 -1.075192 0.000000
vt -0.206155 -1.071278 0.000000
vt 0.206155 -0.640070 0.000000
vt -0.206155 -0.633546 0.000000
vt 0.206155 -0.204947 0.000000
vt -0.206155 -0.195814 0.000000
vt -0.050223 0.000000 0.000000
vt -0.050223 0.600000 0.000000
vt -0.301198 0.000000 0.000000
vt -0.150639 1.000000 0.000000
vt -0.301198 1.000000 0.000000
vt -0.250975 0.000000 0.000000
vt -0.000000 0.000000 0.000000
vt -0.250975 0.600000 0.000000
vt -0.150559 1.000000 0.000000
vt -0.000000 1.000000 0.000000
vt -0.000000 6.554135 0.000000
vt -0.600000 6.554135 0.000000
vt -0.000000 6.128901 0.000000
vt -0.600000 6.128901 0.000000
vt -0.000000 5.703668 0.000000
vt -0.600000 5.703668 0.000000
vt -0.000000 5.278435 0.000000
vt -0.600000 5.278435 0.000000
vt -0.000000 4.853202 0.000000
vt -0.600000 4.853202 0.000000
vt -0.000000 4.427968 0.000000
vt -0.600000 4.427968 0.000000
vt -0.000000 4.002735 0.000000
vt -0.600000 4.002735 0.000000
vt -0.000000 3.577502 0.000000
vt -0.600000 3.577502 0.000000
vt -0.206155 -3.259938 0.000000
vt 0.206155 -3.250804 0.000000
vt -0.206155 -2.822206 0.000000
vt 0.206155 -2.815682 0.000000
vt -0.206155 -2.384474 0.000000
vt 0.206155 -2.380560 0.000000
vt -0.206155 -1.946742 0.000000
vt 0.206155 -1.945437 0.000000
vt 0.206155 -1.510315 0.000000
vt -0.206155 -1.509010 0.000000
vt 0.206155 -1.075192 0.000000
vt -0.206155 -1.071278 0.000000
vt 0.206155 -0.640070 0.000000
vt -0.206155 -0.633546 0.000000
vt 0.206155 -0.204947 0.000000
vt -0.206155 -0.195814 0.000000
vt -0.050223 0.000000 0.000000
vt -0.050223 0.600000 0.000000
vt -0.301198 0.000000 0.000000
vt -0.150639 1.000000 0.000000
vt -0.301198 1.000000 0.000000
vt -0.250975 0.000000 0.000000
vt -0.000000 0.000000 0.000000
vt -0.250975 0.600000 0.000000
vt -0.150559 1.000000 0.000000
vt -0.000000 1.000000 0.000000
vt 0.000000 3.577502 0.000000
vt 0.600000 3.577502 0.000000
vt 0.000000 4.002735 0.000000
vt 0.600000 4.002735 0.000000
vt 0.000000 4.427968 0.000000
vt 0.600000 4.427968 0.000000
vt 0.000000 4.853202 0.000000
vt 0.600000 4.853202 0.000000
vt 0.000000 5.278435 0.000000
vt 0.600000 5.278435 0.000000
vt 0.000000 5.703668 0.000000
vt 0.600000 5.703668 0.000000
vt 0.000000 6.128901 0.000000
vt 0.600000 6.128901 0.000000
vt 0.000000 6.554135 0.000000
vt 0.600000 6.554135 0.000000
vt -1.000000 3.970143 0.000000
vt -0.000000 3.970143 0.000000
vt -1.000000 4.451493 0.000000
vt -0.000000 4.451493 0.000000
vt -1.000000 4.932842 0.000000
vt -0.000000 4.932842 0.000000
vt -1.000000 5.414192 0.000000
vt -0.000000 5.414192 0.000000
vt -1.000000 5.895542 0.000000
vt -0.000000 5.895542 0.000000
vt -1.000000 6.376891 0.000000
vt -0.000000 6.376891 0.000000
vt -1.000000 6.858241 0.000000
vt -0.000000 6.858241 0.000000
vt -1.000000 7.339590 0.000000
vt -0.000000 7.339590 0.000000
vt 0.250975 0.000000 0.000000
vt 0.250975 0.600000 0.000000
vt 0.000000 0.000000 0.000000
vt 0.150559 1.000000 0.000000
vt 0.000000 1.000000 0.000000
vt 0.050223 0.000000 0.000000
vt 0.301198 0.000000 0.000000
vt 0.050223 0.600000 0.000000
vt 0.150639 1.000000 0.000000
vt 0.301198 1.000000 0.000000
vt 0.206155 -0.195814 0.000000
vt -0.206155 -0.204947 0.000000
vt 0.206155 -0.633546 0.000000
vt -0.206155 -0.640070 0.000000
vt 0.206155 -1.071278 0.000000
vt -0.206155 -1.075192 0.000000
vt 0.206155 -1.509010 0.000000
vt -0.206155 -1.510315 0.000000
vt 0.206155 -1.946742 0.000000
vt -0.206155 -1.945437 0.000000
vt -0.206155 -2.380560 0.000000
vt 0.206155 -2.384474 0.000000
vt -0.206155 -2.815682 0.000000
vt 0.206155 -2.822206 0.000000
vt -0.206155 -3.250804 0.000000
vt 0.206155 -3.259938 0.000000
vt 1.095826 1.095826 0.000000
vt 0.623369 1.008041 0.000000
vt 1.095826 0.945267 0.000000
vt 0.656800 0.861521 0.000000
vt 0.177872 0.827892 0.000000
vt 0.242989 0.692649 0.000000
vt -0.222807 0.562602 0.000000
vt -0.129280 0.445316 0.000000
vt -0.562602 0.222807 0.000000
vt -0.445316 0.129280 0.000000
vt -0.692649 -0.242989 0.000000
vt -0.827892 -0.177872 0.000000
vt -0.861521 -0.656800 0.000000
vt -1.008041 -0.623369 0.000000
vt -0.945267 -1.095826 0.000000
vt -1.095826 -1.095826 0.000000
vt -1.095826 1.095826 0.000000
vt -1.095826 0.945267 0.000000
vt -0.623369 1.008041 0.000000
vt -0.656800 0.861521 0.000000
vt -0.177872 0.827892 0.000000
vt -0.242989 0.692649 0.000000
vt 0.222807 0.562602 0.000000
vt 0.129280 0.445316 0.000000
vt 0.562602 0.222807 0.000000
vt 0.445316 0.129280 0.000000
vt 0.692649 -0.242989 0.000000
vt 0.827892 -0.177872 0.000000
vt 0.861521 -0.656800 0.000000
vt 1.008041 -0.623369 0.000000
vt 0.945267 -1.095826 0.000000
vt 1.095826 -1.095826 0.000000
vt -0.000000 3.970143 0.000000
vt 1.000000 3.970143 0.000000
vt -0.000000 4.451493 0.000000
vt 1.000000 4.451493 0.000000
vt -0.000000 4.932842 0.000000
vt 1.000000 4.932842 0.000000
vt -0.000000 5.414192 0.000000
vt 1.000000 5.414192 0.000000
vt -0.000000 5.895542 0.000000
vt 1.000000 5.895542 0.000000
vt -0.000000 6.376891 0.000000
vt 1.000000 6.376891 0.000000
vt -0.000000 6.858241 0.000000
vt 1.000000 6.858241 0.000000
vt -0.000000 7.339590 0.000000
vt 1.000000 7.339590 0.000000
vt -1.095826 1.095826 0.000000
vt -1.095826 0.945267 0.000000
vt -0.623369 1.008041 0.000000
vt -0.656800 0.861521 0.000000
vt -0.177872 0.827892 0.000000
vt -0.242989 0.692649 0.000000
vt 0.222807 0.562602 0.000000
vt 0.129280 0.445316 0.000000
vt 0.562602 0.222807 0.000000
vt 0.445316 0.129280 0.000000
vt 0.692649 -0.242989 0.000000
vt 0.827892 -0.177872 0.000000
vt 0.861521 -0.656800 0.000000
vt 1.008041 -0.623369 0.000000
vt 0.945267 -1.095826 0.000000
vt 1.095826 -1.095826 0.000000
vt -0.000000 3.970143 0.000000
vt 1.000000 3.970143 0.000000
vt -0.000000 4.451493 0.000000
vt 1.000000 4.451493 0.000000
vt -0.000000 4.932842 0.000000
vt 1.000000 4.932842 0.000000
vt -0.000000 5.414192 0.000000
vt 1.000000 5.414192 0.000000
vt -0.000000 5.895542 0.000000
vt 1.000000 5.895542 0.000000
vt -0.000000 6.376891 0.000000
vt 1.000000 6.376891 0.000000
vt -0.000000 6.858241 0.000000
vt 1.000000 6.858241 0.000000
vt -0.000000 7.339590 0.000000
vt 1.000000 7.339590 0.000000
vt 1.095826 1.095826 0.000000
vt 0.623369 1.008041 0.000000
vt 1.095826 0.945267 0.000000
vt 0.656800 0.861521 0.000000
vt 0.177872 0.827892 0.000000
vt 0.242989 0.692649 0.000000
vt -0.222807 0.562602 0.000000
vt -0.129280 0.445316 0.000000
vt -0.562602 0.222807 0.000000
vt -0.445316 0.129280 0.000000
vt -0.692649 -0.242989 0.000000
vt -0.827892 -0.177872 0.000000
vt -0.861521 -0.656800 0.000000
vt -1.008041 -0.623369 0.000000
vt -0.945267 -1.095826 0.000000
vt -1.095826 -1.095826 0.000000
vt -1.000000 4.250250 0.000000
vt -0.000000 4.250250 0.000000
vt 1.000000 4.361578 0.000000
vt -0.000000 3.982384 0.000000
vt 1.000000 3.848451 0.000000
vt -0.000000 3.714518 0.000000
vt 1.000000 3.335324 0.000000
vt -0.000000 3.446652 0.000000
vt -1.000000 3.446652 0.000000
vt -1.000000 2.939177 0.000000
vt 1.000000 2.822197 0.000000
vt -1.000000 2.431701 0.000000
vt 1.000000 2.309071 0.000000
vt -1.000000 1.924225 0.000000
vt 1.000000 1.795944 0.000000
vt -1.000000 1.416750 0.000000
vt 1.000000 1.282817 0.000000
vt -1.000000 0.909274 0.000000
vt 1.000000 0.769690 0.000000
vt -1.000000 0.401799 0.000000
vt -0.000000 0.401799 0.000000
vt 1.000000 0.256563 0.000000
vt -0.000000 0.133933 0.000000
vt -0.000000 -0.133933 0.000000
vt 1.000000 -0.256563 0.000000
vt -0.000000 -0.401799 0.000000
vt 1.000000 -0.769690 0.000000
vt -1.000000 -0.909274 0.000000
vt 1.000000 -1.282817 0.000000
vt -1.000000 -1.416750 0.000000
vt 1.000000 -1.795944 0.000000
vt -1.000000 -1.924225 0.000000
vt 1.000000 -2.309071 0.000000
vt -1.000000 -2.431701 0.000000
vt 1.000000 -2.822197 0.000000
vt -1.000000 -2.939177 0.000000
vt 1.000000 -3.335324 0.000000
vt -1.000000 -3.446652 0.000000
vt -0.000000 -3.446652 0.000000
vt -1.000000 -0.401799 0.000000
vt -0.000000 -3.714518 0.000000
vt 1.000000 -3.848451 0.000000
vt -0.000000 -3.982384 0.000000
vt 1.000000 -4.361578 0.000000
vt -0.000000 -4.250250 0.000000
vt -1.000000 -4.250250 0.000000
vt -1.000000 -4.757725 0.000000
vt 1.000000 -4.874705 0.000000
vt -1.000000 -5.265201 0.000000
vt 1.000000 -5.387831 0.000000
vt -1.000000 -5.772676 0.000000
vt 1.000000 -5.900958 0.000000
vt -1.000000 -6.280152 0.000000
vt 1.000000 -6.414085 0.000000
vt -1.000000 -6.787628 0.000000
vt 1.000000 -6.927212 0.000000
vt -1.000000 -7.295103 0.000000
vt -0.000000 -7.295103 0.000000
vt 1.000000 -7.440339 0.000000
vt 0.000000 -7.562969 0.000000
vt 0.000000 -7.830835 0.000000
vt 1.000000 -7.953465 0.000000
vt 1.000000 7.440339 0.000000
vt -0.000000 7.562969 0.000000
vt 0.000000 7.295103 0.000000
vt 1.000000 6.927212 0.000000
vt -1.000000 6.787628 0.000000
vt 1.000000 6.414085 0.000000
vt -1.000000 6.280152 0.000000
vt 1.000000 5.900958 0.000000
vt -1.000000 5.772676 0.000000
vt 1.000000 5.387831 0.000000
vt -1.000000 5.265201 0.000000
vt 1.000000 4.874705 0.000000
vt -1.000000 4.757725 0.000000
vt -1.000000 7.295103 0.000000
vt -1.078867 -0.552543 0.000000
vt -1.211579 -0.968905 0.000000
vt -1.166652 -1.025000 0.000000
vt -1.211579 -1.481095 0.000000
vt -1.166652 -1.425000 0.000000
vt -1.078867 -1.897457 0.000000
vt -1.105088 -1.982092 0.000000
vt -0.898718 -2.342954 0.000000
vt -0.896762 -2.450000 0.000000
vt -0.633428 -2.743633 0.000000
vt -0.595705 -2.864370 0.000000
vt -0.293633 -3.083428 0.000000
vt -0.215074 -3.207092 0.000000
vt 0.107046 -3.348718 0.000000
vt 0.228495 -3.463186 0.000000
vt 0.552543 -3.528867 0.000000
vt 0.715616 -3.621462 0.000000
vt 1.025000 -3.616652 0.000000
vt 1.225000 -3.675000 0.000000
vt 1.025000 -3.365677 0.000000
vt 1.425000 -3.365677 0.000000
vt 1.225000 -2.925000 0.000000
vt 1.647773 -2.871591 0.000000
vt 1.841735 -3.284645 0.000000
vt 2.043981 -2.714721 0.000000
vt 2.234424 -3.123305 0.000000
vt 2.587754 -2.887950 0.000000
vt -1.105088 -0.467908 0.000000
vt -0.898718 -0.107046 0.000000
vt -0.896762 0.000000 0.000000
vt -0.633428 0.293633 0.000000
vt -0.595705 0.414370 0.000000
vt -0.293633 0.633428 0.000000
vt -0.215074 0.757092 0.000000
vt 0.107046 0.898718 0.000000
vt 0.228495 1.013186 0.000000
vt 0.552543 1.078867 0.000000
vt 0.715616 1.171462 0.000000
vt 1.025000 1.166652 0.000000
vt 1.225000 1.225000 0.000000
vt 1.025000 0.915677 0.000000
vt 1.425000 0.915677 0.000000
vt 1.438066 0.461595 0.000000
vt 1.841735 0.834645 0.000000
vt 1.850812 0.355620 0.000000
vt 2.234424 0.673305 0.000000
vt 2.224235 0.150329 0.000000
vt 2.587754 0.437950 0.000000
vt 2.534873 -0.141379 0.000000
vt 2.887950 0.137754 0.000000
vt 3.123305 -0.215576 0.000000
vt 2.763206 -0.501175 0.000000
vt 3.284645 -0.608265 0.000000
vt 2.894888 -0.906452 0.000000
vt 3.365677 -1.025000 0.000000
vt 2.921645 -1.331744 0.000000
vt 3.365677 -1.425000 0.000000
vt 2.841796 -1.750329 0.000000
vt 3.284645 -1.841735 0.000000
vt 3.123305 -2.234424 0.000000
vt 2.660357 -2.135906 0.000000
vt 2.887950 -2.587754 0.000000
vt 2.388730 -2.464247 0.000000
vt 1.011934 0.461595 0.000000
vt 0.608265 0.834645 0.000000
vt 0.599188 0.355620 0.000000
vt 0.215576 0.673305 0.000000
vt 0.225765 0.150329 0.000000
vt -0.137754 0.437950 0.000000
vt -0.084873 -0.141379 0.000000
vt -0.437950 0.137754 0.000000
vt -0.673305 -0.215576 0.000000
vt -0.313206 -0.501175 0.000000
vt -0.834645 -0.608265 0.000000
vt -0.444888 -0.906452 0.000000
vt -0.915677 -1.025000 0.000000
vt -0.471645 -1.331744 0.000000
vt -0.915677 -1.425000 0.000000
vt -0.391796 -1.750329 0.000000
vt -0.834645 -1.841735 0.000000
vt -0.673305 -2.234424 0.000000
vt -0.210357 -2.135906 0.000000
vt -0.437950 -2.587754 0.000000
vt 0.061270 -2.464247 0.000000
vt -0.137754 -2.887950 0.000000
vt 0.406019 -2.714721 0.000000
vt 0.215576 -3.123305 0.000000
vt 0.608265 -3.284645 0.000000
vt 0.802227 -2.871591 0.000000
vt 3.616652 -1.425000 0.000000
vt 3.616652 -1.025000 0.000000
vt 3.661579 -1.481095 0.000000
vt 3.661579 -0.968905 0.000000
vt 1.425000 1.166652 0.000000
vt 1.734384 1.171462 0.000000
vt 1.897457 1.078867 0.000000
vt 2.221505 1.013186 0.000000
vt 2.342954 0.898718 0.000000
vt 2.665074 0.757092 0.000000
vt 2.743633 0.633428 0.000000
vt 3.045705 0.414370 0.000000
vt 3.083428 0.293633 0.000000
vt 3.346762 0.000000 0.000000
vt 3.348718 -0.107046 0.000000
vt 3.555088 -0.467908 0.000000
vt 3.528867 -0.552543 0.000000
vt 3.528867 -1.897457 0.000000
vt 3.555088 -1.982092 0.000000
vt 3.348718 -2.342954 0.000000
vt 3.346762 -2.450000 0.000000
vt 3.083428 -2.743633 0.000000
vt 3.045705 -2.864370 0.000000
vt 2.743633 -3.083428 0.000000
vt 2.665074 -3.207092 0.000000
vt 2.342954 -3.348718 0.000000
vt 2.221505 -3.463186 0.000000
vt 1.897457 -3.528867 0.000000
vt 1.734384 -3.621462 0.000000
vt 1.425000 -3.616652 0.000000
vt 1.000000 3.097610 0.000000
vt -1.000000 2.670354 0.000000
vt 1.000000 2.670354 0.000000
vt -1.000000 2.243097 0.000000
vt 1.000000 2.243097 0.000000
vt -1.000000 1.815841 0.000000
vt 1.000000 1.815841 0.000000
vt -1.000000 1.388584 0.000000
vt 1.000000 1.388584 0.000000
vt -1.000000 0.961327 0.000000
vt 1.000000 0.961327 0.000000
vt -1.000000 0.534071 0.000000
vt 1.000000 0.534071 0.000000
vt -1.000000 0.106814 0.000000
vt 1.000000 0.106814 0.000000
vt -1.000000 -0.320442 0.000000
vt 1.000000 -0.320442 0.000000
vt -1.000000 -0.747699 0.000000
vt 1.000000 -0.747699 0.000000
vt -1.000000 -1.174956 0.000000
vt 1.000000 -1.174956 0.000000
vt -1.000000 -1.602212 0.000000
vt 1.000000 -1.602212 0.000000
vt -1.000000 -2.029469 0.000000
vt 1.000000 -2.029469 0.000000
vt -1.000000 -2.456725 0.000000
vt 1.000000 -2.456725 0.000000
vt -1.000000 -2.883982 0.000000
vt 1.000000 -2.883982 0.000000
vt -1.000000 -3.311239 0.000000
vt 1.000000 -3.311239 0.000000
vt -1.000000 -3.738495 0.000000
vt 1.000000 -3.738495 0.000000
vt -1.000000 -4.165752 0.000000
vt 1.000000 -4.165752 0.000000
vt -1.000000 -4.593008 0.000000
vt 1.000000 -4.593008 0.000000
vt -1.000000 -5.020265 0.000000
vt 1.000000 -5.020265 0.000000
vt 1.000000 5.661150 0.000000
vt -1.000000 5.661150 0.000000
vt -1.000000 5.233893 0.000000
vt 1.000000 5.233893 0.000000
vt -1.000000 4.806637 0.000000
vt 1.000000 4.806637 0.000000
vt -1.000000 4.379380 0.000000
vt 1.000000 4.379380 0.000000
vt -1.000000 3.952124 0.000000
vt 1.000000 3.952124 0.000000
vt -1.000000 3.524867 0.000000
vt 1.000000 3.524867 0.000000
vt -1.000000 3.097610 0.000000
vn -0.100000 -0.000000 0.000000
vn -0.100000 -0.000000 0.000000
vn -0.100000 -0.000000 0.000000
vn -0.100000 -0.000000 0.000000
vn 0.000000 -0.100000 0.000000
vn 0.000000 -0.100000 0.000000
vn 0.000000 -0.100000 0.000000
vn 0.000000 -0.100000 0.000000
vn 0.000000 0.000000 -0.100000
vn 0.000000 0.000000 -0.100000
vn 0.000000 0.000000 -0.100000
vn 0.000000 0.000000 -0.100000
vn 0.000000 0.000000 -0.100000
vn 0.000000 0.000000 -0.100000
vn 0.000000 0.000000 -0.100000
vn 0.000000 0.000000 -0.100000
vn 0.000000 0.000000 -0.100000
vn 0.000000 0.000000 -0.100000
vn 0.000000 0.000000 -0.100000
vn 0.000000 0.000000 -0.100000
vn 0.000000 0.000000 -0.100000
vn 0.000000 0.000000 -0.100000
vn 0.000000 0.000000 -0.100000
vn 0.000000 0.000000 -0.100000
vn 0.000000 0.000000 -0.100000
vn 0.000000 0.000000 -0.100000
vn 0.000000 0.000000 -0.100000
vn 0.000000 0.000000 -0.100000
vn 0.000000 0.000000 -0.100000
vn 0.000000 0.000000 -0.100000
vn 0.000000 0.000000 -0.100000
vn 0.000000 0.000000 -0.100000
vn 0.000000 0.000000 -0.100000
vn 0.000000 0.000000 -0.100000
vn 0.000000 0.000000 -0.100000
vn 0.000000 0.000000 -0.100000
vn 0.000000 0.000000 -0.100000
vn 0.000000 0.000000 -0.100000
vn 0.000000 0.000000 -0.100000
vn 0.000000 0.000000 -0.100000
vn 0.000000 0.000000 -0.100000
vn 0.000000 0.000000 -0.100000
vn 0.000000 0.000000 -0.100000
vn 0.000000 0.000000 -0.100000
vn 0.000000 0.000000 -0.100000
vn 0.000000 0.000000 -0.100000
vn 0.000000 0.000000 -0.100000
vn 0.000000 0.000000 -0.100000
vn 0.000000 0.000000 -0.100000
vn 0.000000 0.000000 -0.100000
vn 0.000000 0.000000 -0.100000
vn 0.000000 0.000000 -0.100000
vn 0.000000 0.000000 -0.100000
vn 0.000000 0.000000 -0.100000
vn 0.000000 0.000000 -0.100000
vn 0.000000 0.000000 -0.100000
vn 0.000000 0.000000 -0.100000
vn 0.000000 0.000000 -0.100000
vn 0.000000 0.000000 -0.100000
vn 0.000000 0.000000 -0.100000
vn 0.000000 0.000000 -0.100000
vn 0.000000 0.000000 -0.100000
vn 0.000000 0.000000 -0.100000
vn 0.000000 0.000000 -0.100000
vn 0.000000 0.000000 -0.100000
vn 0.000000 0.000000 -0.100000
vn 0.000000 0.000000 -0.100000
vn 0.000000 0.000000 -0.100000
vn 0.000000 0.000000 -0.100000
vn 0.000000 0.000000 -0.100000
vn 0.000000 0.000000 -0.100000
vn 0.000000 0.000000 -0.100000
vn 0.000000 0.000000 -0.100000
vn 0.000000 0.000000 -0.100000
vn 0.000000 0.000000 -0.100000
vn 0.000000 0.000000 -0.100000
vn 0.000000 0.000000 -0.100000
vn -0.000000 0.100000 0.000000
vn -0.000000 0.100000 0.000000
vn -0.000000 0.100000 0.000000
vn -0.000000 0.100000 0.000000
vn 0.000000 0.000000 0.100000
vn 0.000000 0.000000 0.100000
vn 0.000000 0.000000 0.100000
vn 0.000000 0.000000 0.100000
vn 0.000000 0.000000 0.100000
vn 0.000000 0.000000 0.100000
vn 0.000000 0.000000 0.100000
vn 0.000000 0.000000 0.100000
vn 0.000000 0.000000 0.100000
vn 0.000000 0.000000 0.100000
vn 0.000000 0.000000 0.100000
vn 0.000000 0.000000 0.100000
vn 0.000000 0.000000 0.100000
vn 0.000000 0.000000 0.100000
vn 0.000000 0.000000 0.100000
vn 0.000000 0.000000 0.100000
vn 0.000000 0.000000 0.100000
vn 0.000000 0.000000 0.100000
vn 0.000000 0.000000 0.100000
vn 0.000000 0.000000 0.100000
vn 0.000000 0.000000 0.100000
vn 0.000000 0.000000 0.100000
vn 0.000000 0.000000 0.100000
vn 0.000000 0.000000 0.100000
vn 0.000000 0.000000 0.100000
vn 0.000000 0.000000 0.100000
vn 0.000000 0.000000 0.100000
vn 0.000000 0.000000 0.100000
vn 0.000000 0.000000 0.100000
vn 0.000000 0.000000 0.100000
vn 0.000000 0.000000 0.100000
vn 0.000000 0.000000 0.100000
vn 0.100000 -0.000000 0.000000
vn 0.100000 -0.000000 0.000000
vn 0.100000 -0.000000 0.000000
vn 0.100000 -0.000000 0.000000
vn 0.000000 0.100000 0.000000
vn 0.000000 0.100000 0.000000
vn 0.000000 0.100000 0.000000
vn 0.000000 0.100000 0.000000
vn -0.100000 0.000000 -0.000000
vn -0.100000 0.000000 -0.000000
vn -0.100000 0.000000 -0.000000
vn -0.100000 0.000000 -0.000000
vn -0.000000 -0.100000 0.000000
vn -0.000000 -0.100000 0.000000
vn -0.000000 -0.100000 0.000000
vn -0.000000 -0.100000 0.000000
vn 0.100000 0.000000 0.000000
vn 0.100000 0.000000 0.000000
vn 0.100000 0.000000 0.000000
vn 0.100000 0.000000 0.000000
vn -0.000000 -0.100000 0.000000
vn -0.000000 -0.100000 0.000000
vn -0.000000 -0.100000 0.000000
vn -0.000000 -0.100000 0.000000
vn 0.100000 -0.000000 0.000000
vn 0.100000 -0.000000 0.000000
vn 0.100000 -0.000000 0.000000
vn 0.100000 -0.000000 0.000000
vn 0.000000 0.100000 0.000000
vn 0.000000 0.100000 0.000000
vn 0.000000 0.100000 0.000000
vn 0.000000 0.100000 0.000000
vn -0.100000 0.000000 0.000000
vn -0.100000 0.000000 0.000000
vn -0.100000 0.000000 0.000000
vn -0.100000 0.000000 0.000000
vn 0.100000 0.000000 0.000000
vn 0.100000 0.000000 0.000000
vn 0.100000 0.000000 0.000000
vn 0.100000 0.000000 0.000000
vn 0.000000 0.100000 0.000000
vn 0.000000 0.100000 0.000000
vn 0.000000 0.100000 0.000000
vn 0.000000 0.100000 0.000000
vn 0.000000 -0.100000 0.000000
vn 0.000000 -0.100000 0.000000
vn 0.000000 -0.100000 0.000000
vn 0.000000 -0.100000 0.000000
vn -0.100000 0.000000 0.000000
vn -0.100000 0.000000 0.000000
vn -0.100000 0.000000 0.000000
vn -0.100000 0.000000 0.000000
vn 0.000000 0.100000 0.000000
vn 0.000000 0.100000 0.000000
vn 0.000000 0.100000 0.000000
vn 0.000000 0.100000 0.000000
vn -0.100000 0.000000 0.000000
vn -0.100000 0.000000 0.000000
vn -0.100000 0.000000 0.000000
vn -0.100000 0.000000 0.000000
vn 0.000000 -0.100000 0.000000
vn 0.000000 -0.100000 0.000000
vn 0.000000 -0.100000 0.000000
vn 0.000000 -0.100000 0.000000
vn 0.100000 -0.000000 0.000000
vn 0.100000 -0.000000 0.000000
vn 0.100000 -0.000000 0.000000
vn 0.100000 -0.000000 0.000000
vn 0.009302 -0.099566 0.000000
vn 0.009302 -0.099566 0.000000
vn 0.028685 -0.095797 0.000000
vn 0.028685 -0.095797 0.000000
vn 0.046950 -0.088293 0.000000
vn 0.046950 -0.088293 0.000000
vn 0.063384 -0.077346 0.000000
vn 0.063384 -0.077346 0.000000
vn 0.077346 -0.063384 0.000000
vn 0.077346 -0.063384 0.000000
vn 0.088293 -0.046950 0.000000
vn 0.088293 -0.046950 0.000000
vn 0.095797 -0.028685 0.000000
vn 0.095797 -0.028685 0.000000
vn 0.099566 -0.009302 0.000000
vn 0.099566 -0.009302 0.000000
vn -0.008333 0.099652 -0.000000
vn -0.008333 0.099652 -0.000000
vn -0.028019 0.095994 -0.000000
vn -0.028019 0.095994 -0.000000
vn -0.046581 0.088488 -0.000000
vn -0.046581 0.088488 -0.000000
vn -0.063276 0.077435 -0.000000
vn -0.063276 0.077435 -0.000000
vn -0.077435 0.063276 -0.000000
vn -0.077435 0.063276 -0.000000
vn -0.088488 0.046581 -0.000000
vn -0.088488 0.046581 -0.000000
vn -0.095994 0.028019 -0.000000
vn -0.095994 0.028019 -0.000000
vn -0.099652 0.008333 -0.000000
vn -0.099652 0.008333 -0.000000
vn 0.000000 -0.100000 0.000000
vn 0.000000 -0.100000 0.000000
vn 0.000000 -0.100000 0.000000
vn 0.000000 -0.100000 0.000000
vn 0.000000 -0.100000 0.000000
vn 0.100000 0.000000 0.000000
vn 0.100000 0.000000 0.000000
vn 0.100000 0.000000 0.000000
vn 0.100000 0.000000 0.000000
vn 0.100000 0.000000 0.000000
vn 0.096630 -0.008623 0.024254
vn 0.096594 -0.009025 0.024254
vn 0.093019 -0.027553 0.024254
vn 0.092937 -0.027829 0.024254
vn 0.085738 -0.045396 0.024254
vn 0.085657 -0.045548 0.024254
vn 0.075074 -0.061447 0.024254
vn 0.075037 -0.061491 0.024254
vn 0.061447 -0.075074 0.024254
vn 0.061491 -0.075037 0.024254
vn 0.045548 -0.085657 0.024254
vn 0.045396 -0.085738 0.024254
vn 0.027829 -0.092937 0.024254
vn 0.027553 -0.093019 0.024254
vn 0.009025 -0.096594 0.024254
vn 0.008623 -0.096630 0.024254
vn 0.099566 0.009302 0.000000
vn 0.099566 0.009302 0.000000
vn 0.095797 0.028685 0.000000
vn 0.095797 0.028685 0.000000
vn 0.088293 0.046950 0.000000
vn 0.088293 0.046950 0.000000
vn 0.077346 0.063384 0.000000
vn 0.077346 0.063384 0.000000
vn 0.063384 0.077346 0.000000
vn 0.063384 0.077346 0.000000
vn 0.046950 0.088293 0.000000
vn 0.046950 0.088293 0.000000
vn 0.028685 0.095797 0.000000
vn 0.028685 0.095797 0.000000
vn 0.009302 0.099566 0.000000
vn 0.009302 0.099566 0.000000
vn 0.008623 0.096630 0.024254
vn 0.009025 0.096594 0.024254
vn 0.027553 0.093019 0.024254
vn 0.027829 0.092937 0.024254
vn 0.045396 0.085738 0.024254
vn 0.045548 0.085657 0.024254
vn 0.061447 0.075074 0.024254
vn 0.061491 0.075037 0.024254
vn 0.075037 0.061491 0.024254
vn 0.075074 0.061447 0.024254
vn 0.085657 0.045548 0.024254
vn 0.085738 0.045396 0.024254
vn 0.092937 0.027829 0.024254
vn 0.093019 0.027553 0.024254
vn 0.096594 0.009025 0.024254
vn 0.096630 0.008623 0.024254
vn 0.100000 0.000000 0.000000
vn 0.100000 0.000000 0.000000
vn 0.100000 0.000000 0.000000
vn 0.100000 0.000000 0.000000
vn 0.100000 0.000000 0.000000
vn 0.000000 0.100000 0.000000
vn 0.000000 0.100000 0.000000
vn 0.000000 0.100000 0.000000
vn 0.000000 0.100000 0.000000
vn 0.000000 0.100000 0.000000
vn -0.099566 -0.009302 0.000000
vn -0.099566 -0.009302 0.000000
vn -0.095797 -0.028685 0.000000
vn -0.095797 -0.028685 0.000000
vn -0.088293 -0.046950 0.000000
vn -0.088293 -0.046950 0.000000
vn -0.077346 -0.063384 0.000000
vn -0.077346 -0.063384 0.000000
vn -0.063384 -0.077346 0.000000
vn -0.063384 -0.077346 0.000000
vn -0.046950 -0.088293 0.000000
vn -0.046950 -0.088293 0.000000
vn -0.028685 -0.095797 0.000000
vn -0.028685 -0.095797 0.000000
vn -0.009302 -0.099566 0.000000
vn -0.009302 -0.099566 0.000000
vn -0.008623 -0.096630 0.024254
vn -0.009025 -0.096594 0.024254
vn -0.027553 -0.093019 0.024254
vn -0.027829 -0.092937 0.024254
vn -0.045396 -0.085738 0.024254
vn -0.045548 -0.085657 0.024254
vn -0.061447 -0.075074 0.024254
vn -0.061491 -0.075037 0.024254
vn -0.075037 -0.061491 0.024254
vn -0.075074 -0.061447 0.024254
vn -0.085657 -0.045548 0.024254
vn -0.085738 -0.045396 0.024254
vn -0.092937 -0.027829 0.024254
vn -0.093019 -0.027553 0.024254
vn -0.096594 -0.009025 0.024254
vn -0.096630 -0.008623 0.024254
vn -0.100000 0.000000 0.000000
vn -0.100000 0.000000 0.000000
vn -0.100000 0.000000 0.000000
vn -0.100000 0.000000 0.000000
vn -0.100000 0.000000 0.000000
vn -0.000000 -0.100000 0.000000
vn -0.000000 -0.100000 0.000000
vn -0.000000 -0.100000 0.000000
vn -0.000000 -0.100000 0.000000
vn -0.000000 -0.100000 0.000000
vn -0.009302 0.099566 -0.000000
vn -0.009302 0.099566 -0.000000
vn -0.028685 0.095797 -0.000000
vn -0.028685 0.095797 -0.000000
vn -0.046950 0.088293 -0.000000
vn -0.046950 0.088293 -0.000000
vn -0.063384 0.077346 -0.000000
vn -0.063384 0.077346 -0.000000
vn -0.077346 0.063384 -0.000000
vn -0.077346 0.063384 -0.000000
vn -0.088293 0.046950 -0.000000
vn -0.088293 0.046950 -0.000000
vn -0.095797 0.028685 -0.000000
vn -0.095797 0.028685 -0.000000
vn -0.099566 0.009302 -0.000000
vn -0.099566 0.009302 -0.000000
vn 0.008333 -0.099652 0.000000
vn 0.008333 -0.099652 0.000000
vn 0.028019 -0.095994 0.000000
vn 0.028019 -0.095994 0.000000
vn 0.046581 -0.088488 0.000000
vn 0.046581 -0.088488 0.000000
vn 0.063276 -0.077435 0.000000
vn 0.063276 -0.077435 0.000000
vn 0.077435 -0.063276 0.000000
vn 0.077435 -0.063276 0.000000
vn 0.088488 -0.046581 0.000000
vn 0.088488 -0.046581 0.000000
vn 0.095994 -0.028019 0.000000
vn 0.095994 -0.028019 0.000000
vn 0.099652 -0.008333 0.000000
vn 0.099652 -0.008333 0.000000
vn 0.000000 0.100000 0.000000
vn 0.000000 0.100000 0.000000
vn 0.000000 0.100000 0.000000
vn 0.000000 0.100000 0.000000
vn 0.000000 0.100000 0.000000
vn -0.100000 0.000000 0.000000
vn -0.100000 0.000000 0.000000
vn -0.100000 0.000000 0.000000
vn -0.100000 0.000000 0.000000
vn -0.100000 0.000000 0.000000
vn -0.096630 0.008623 0.024254
vn -0.096594 0.009025 0.024254
vn -0.093019 0.027553 0.024254
vn -0.092937 0.027829 0.024254
vn -0.085738 0.045396 0.024254
vn -0.085657 0.045548 0.024254
vn -0.075074 0.061447 0.024254
vn -0.075037 0.061491 0.024254
vn -0.061447 0.075074 0.024254
vn -0.061491 0.075037 0.024254
vn -0.045548 0.085657 0.024254
vn -0.045396 0.085738 0.024254
vn -0.027829 0.092937 0.024254
vn -0.027553 0.093019 0.024254
vn -0.009025 0.096594 0.024254
vn -0.008623 0.096630 0.024254
vn 0.000000 0.000000 0.100000
vn 0.000000 0.000000 0.100000
vn 0.000000 0.000000 0.100000
vn 0.000000 0.000000 0.100000
vn 0.000000 0.000000 0.100000
vn 0.000000 0.000000 0.100000
vn 0.000000 0.000000 0.100000
vn 0.000000 0.000000 0.100000
vn 0.000000 0.000000 0.100000
vn 0.000000 0.000000 0.100000
vn 0.000000 0.000000 0.100000
vn 0.000000 0.000000 0.100000
vn 0.000000 0.000000 0.100000
vn 0.000000 0.000000 0.100000
vn 0.000000 0.000000 0.100000
vn 0.000000 0.000000 0.100000
vn 0.000000 0.000000 0.100000
vn 0.000000 0.000000 0.100000
vn 0.000000 0.000000 0.100000
vn 0.000000 0.000000 0.100000
vn 0.000000 0.000000 0.100000
vn 0.000000 0.000000 0.100000
vn 0.000000 0.000000 0.100000
vn 0.000000 0.000000 0.100000
vn 0.000000 0.000000 0.100000
vn 0.000000 0.000000 0.100000
vn 0.000000 0.000000 0.100000
vn 0.000000 0.000000 0.100000
vn 0.000000 0.000000 0.100000
vn 0.000000 0.000000 0.100000
vn 0.000000 0.000000 0.100000
vn 0.000000 0.000000 0.100000
vn 0.008333 0.099652 0.000000
vn 0.008333 0.099652 0.000000
vn 0.028019 0.095994 0.000000
vn 0.028019 0.095994 0.000000
vn 0.046581 0.088488 0.000000
vn 0.046581 0.088488 0.000000
vn 0.063276 0.077435 0.000000
vn 0.063276 0.077435 0.000000
vn 0.077435 0.063276 0.000000
vn 0.077435 0.063276 0.000000
vn 0.088488 0.046581 0.000000
vn 0.088488 0.046581 0.000000
vn 0.095994 0.028019 0.000000
vn 0.095994 0.028019 0.000000
vn 0.099652 0.008333 0.000000
vn 0.099652 0.008333 0.000000
vn 0.000000 0.000000 0.100000
vn 0.000000 0.000000 0.100000
vn 0.000000 0.000000 0.100000
vn 0.000000 0.000000 0.100000
vn 0.000000 0.000000 0.100000
vn 0.000000 0.000000 0.100000
vn 0.000000 0.000000 0.100000
vn 0.000000 0.000000 0.100000
vn 0.000000 0.000000 0.100000
vn 0.000000 0.000000 0.100000
vn 0.000000 0.000000 0.100000
vn 0.000000 0.000000 0.100000
vn 0.000000 0.000000 0.100000
vn 0.000000 0.000000 0.100000
vn 0.000000 0.000000 0.100000
vn 0.000000 0.000000 0.100000
vn -0.008333 -0.099652 0.000000
vn -0.008333 -0.099652 0.000000
vn -0.028019 -0.095994 0.000000
vn -0.028019 -0.095994 0.000000
vn -0.046581 -0.088488 0.000000
vn -0.046581 -0.088488 0.000000
vn -0.063276 -0.077435 0.000000
vn -0.063276 -0.077435 0.000000
vn -0.077435 -0.063276 0.000000
vn -0.077435 -0.063276 0.000000
vn -0.088488 -0.046581 0.000000
vn -0.088488 -0.046581 0.000000
vn -0.095994 -0.028019 0.000000
vn -0.095994 -0.028019 0.000000
vn -0.099652 -0.008333 0.000000
vn -0.099652 -0.008333 0.000000
vn 0.000000 0.000000 0.100000
vn 0.000000 0.000000 0.100000
vn 0.000000 0.000000 0.100000
vn 0.000000 0.000000 0.100000
vn 0.000000 0.000000 0.100000
vn 0.000000 0.000000 0.100000
vn 0.000000 0.000000 0.100000
vn 0.000000 0.000000 0.100000
vn 0.000000 0.000000 0.100000
vn 0.000000 0.000000 0.100000
vn 0.000000 0.000000 0.100000
vn 0.000000 0.000000 0.100000
vn 0.000000 0.000000 0.100000
vn 0.000000 0.000000 0.100000
vn 0.000000 0.000000 0.100000
vn 0.000000 0.000000 0.100000
vn -0.016327 -0.098658 0.000000
vn -0.016327 -0.098658 0.000000
vn -0.020791 -0.097815 0.000000
vn -0.005464 -0.099851 0.000000
vn 0.000000 -0.100000 0.000000
vn 0.005464 -0.099851 0.000000
vn 0.020791 -0.097815 0.000000
vn 0.016327 -0.098658 0.000000
vn 0.016327 -0.098658 0.000000
vn 0.036267 -0.093192 0.000000
vn 0.040674 -0.091355 0.000000
vn 0.054657 -0.083741 0.000000
vn 0.058779 -0.080902 0.000000
vn 0.070711 -0.070711 0.000000
vn 0.074314 -0.066913 0.000000
vn 0.083741 -0.054657 0.000000
vn 0.086603 -0.050000 0.000000
vn 0.093192 -0.036267 0.000000
vn 0.095106 -0.030902 0.000000
vn 0.098658 -0.016327 0.000000
vn 0.098658 -0.016327 0.000000
vn 0.099452 -0.010453 0.000000
vn 0.099851 -0.005464 0.000000
vn 0.099851 0.005464 0.000000
vn 0.099452 0.010453 0.000000
vn 0.098658 0.016327 0.000000
vn 0.095106 0.030902 0.000000
vn 0.093192 0.036267 0.000000
vn 0.086603 0.050000 0.000000
vn 0.083741 0.054657 0.000000
vn 0.074314 0.066913 0.000000
vn 0.070711 0.070711 0.000000
vn 0.058779 0.080902 0.000000
vn 0.054657 0.083741 0.000000
vn 0.040674 0.091355 0.000000
vn 0.036267 0.093192 0.000000
vn 0.020791 0.097815 0.000000
vn 0.016327 0.098658 0.000000
vn 0.016327 0.098658 0.000000
vn 0.098658 0.016327 0.000000
vn 0.005464 0.099851 0.000000
vn 0.000000 0.100000 0.000000
vn -0.005464 0.099851 -0.000000
vn -0.020791 0.097815 -0.000000
vn -0.016327 0.098658 -0.000000
vn -0.016327 0.098658 -0.000000
vn -0.036267 0.093192 -0.000000
vn -0.040674 0.091355 -0.000000
vn -0.054657 0.083741 -0.000000
vn -0.058779 0.080902 -0.000000
vn -0.070711 0.070711 -0.000000
vn -0.074314 0.066913 -0.000000
vn -0.083741 0.054657 -0.000000
vn -0.086603 0.050000 -0.000000
vn -0.093192 0.036267 -0.000000
vn -0.095106 0.030902 -0.000000
vn -0.098658 0.016327 -0.000000
vn -0.098658 0.016327 -0.000000
vn -0.099452 0.010453 -0.000000
vn -0.099851 0.005464 -0.000000
vn -0.099851 -0.005464 0.000000
vn -0.099452 -0.010453 0.000000
vn -0.098658 -0.016327 0.000000
vn -0.095106 -0.030902 0.000000
vn -0.093192 -0.036267 0.000000
vn -0.086603 -0.050000 0.000000
vn -0.083741 -0.054657 0.000000
vn -0.074314 -0.066913 0.000000
vn -0.070711 -0.070711 0.000000
vn -0.058779 -0.080902 0.000000
vn -0.054657 -0.083741 0.000000
vn -0.040674 -0.091355 0.000000
vn -0.036267 -0.093192 0.000000
vn -0.098658 -0.016327 0.000000
vn 0.000000 0.000000 0.100000
vn 0.000000 0.000000 0.100000
vn 0.000000 0.000000 0.100000
vn 0.000000 0.000000 0.100000
vn 0.000000 0.000000 0.100000
vn 0.000000 0.000000 0.100000
vn 0.000000 0.000000 0.100000
vn 0.000000 0.000000 0.100000
vn 0.000000 0.000000 0.100000
vn 0.000000 0.000000 0.100000
vn 0.000000 0.000000 0.100000
vn 0.000000 0.000000 0.100000
vn 0.000000 0.000000 0.100000
vn 0.000000 0.000000 0.100000
vn 0.000000 0.000000 0.100000
vn 0.000000 0.000000 0.100000
vn 0.000000 0.000000 0.100000
vn 0.000000 0.000000 0.100000
vn 0.000000 0.000000 0.100000
vn 0.000000 0.000000 0.100000
vn 0.000000 0.000000 0.100000
vn 0.000000 0.000000 0.100000
vn 0.000000 0.000000 0.100000
vn 0.000000 0.000000 0.100000
vn 0.000000 0.000000 0.100000
vn 0.000000 0.000000 0.100000
vn 0.000000 0.000000 0.100000
vn 0.000000 0.000000 0.100000
vn 0.000000 0.000000 0.100000
vn 0.000000 0.000000 0.100000
vn 0.000000 0.000000 0.100000
vn 0.000000 0.000000 0.100000
vn 0.000000 0.000000 0.100000
vn 0.000000 0.000000 0.100000
vn 0.000000 0.000000 0.100000
vn 0.000000 0.000000 0.100000
vn 0.000000 0.000000 0.100000
vn 0.000000 0.000000 0.100000
vn 0.000000 0.000000 0.100000
vn 0.000000 0.000000 0.100000
vn 0.000000 0.000000 0.100000
vn 0.000000 0.000000 0.100000
vn 0.000000 0.000000 0.100000
vn 0.000000 0.000000 0.100000
vn 0.000000 0.000000 0.100000
vn 0.000000 0.000000 0.100000
vn 0.000000 0.000000 0.100000
vn 0.000000 0.000000 0.100000
vn 0.000000 0.000000 0.100000
vn 0.000000 0.000000 0.100000
vn 0.000000 0.000000 0.100000
vn 0.000000 0.000000 0.100000
vn 0.000000 0.000000 0.100000
vn 0.000000 0.000000 0.100000
vn 0.000000 0.000000 0.100000
vn 0.000000 0.000000 0.100000
vn 0.000000 0.000000 0.100000
vn 0.000000 0.000000 0.100000
vn 0.000000 0.000000 0.100000
vn 0.000000 0.000000 0.100000
vn 0.000000 0.000000 0.100000
vn 0.000000 0.000000 0.100000
vn 0.000000 0.000000 0.100000
vn 0.000000 0.000000 0.100000
vn 0.000000 0.000000 0.100000
vn 0.000000 0.000000 0.100000
vn 0.000000 0.000000 0.100000
vn 0.000000 0.000000 0.100000
vn 0.000000 0.000000 0.100000
vn 0.000000 0.000000 0.100000
vn 0.000000 0.000000 0.100000
vn 0.000000 0.000000 0.100000
vn 0.000000 0.000000 0.100000
vn 0.000000 0.000000 0.100000
vn 0.000000 0.000000 0.100000
vn 0.000000 0.000000 0.100000
vn 0.000000 0.000000 0.100000
vn 0.000000 0.000000 0.100000
vn 0.000000 0.000000 0.100000
vn 0.000000 0.000000 0.100000
vn 0.000000 0.000000 0.100000
vn 0.000000 0.000000 0.100000
vn 0.000000 0.000000 0.100000
vn 0.000000 0.000000 0.100000
vn 0.000000 0.000000 0.100000
vn 0.000000 0.000000 0.100000
vn 0.000000 0.000000 0.100000
vn 0.000000 0.000000 0.100000
vn 0.000000 0.000000 0.100000
vn 0.000000 0.000000 0.100000
vn 0.000000 0.000000 0.100000
vn 0.000000 0.000000 0.100000
vn 0.000000 0.000000 0.100000
vn 0.000000 0.000000 0.100000
vn 0.000000 0.000000 0.100000
vn 0.000000 0.000000 0.100000
vn 0.000000 0.000000 0.100000
vn 0.000000 0.000000 0.100000
vn 0.000000 0.000000 0.100000
vn 0.000000 0.000000 0.100000
vn 0.000000 0.000000 0.100000
vn 0.000000 0.000000 0.100000
vn 0.000000 0.000000 0.100000
vn 0.000000 0.000000 0.100000
vn 0.000000 0.000000 0.100000
vn 0.000000 0.000000 0.100000
vn 0.000000 0.000000 0.100000
vn 0.000000 0.000000 0.100000
vn 0.000000 0.000000 0.100000
vn 0.000000 0.000000 0.100000
vn 0.000000 0.000000 0.100000
vn 0.000000 0.000000 0.100000
vn 0.000000 0.000000 0.100000
vn 0.000000 0.000000 0.100000
vn 0.000000 0.000000 0.100000
vn 0.000000 0.000000 0.100000
vn 0.000000 0.000000 0.100000
vn 0.000000 0.000000 0.100000
vn 0.000000 0.000000 0.100000
vn 0.024869 0.096858 0.000000
vn -0.000000 0.100000 0.000000
vn -0.000000 0.100000 0.000000
vn -0.024869 0.096858 0.000000
vn -0.024869 0.096858 0.000000
vn -0.048175 0.087631 0.000000
vn -0.048175 0.087631 0.000000
vn -0.068455 0.072897 0.000000
vn -0.068455 0.072897 0.000000
vn -0.084433 0.053583 0.000000
vn -0.084433 0.053583 0.000000
vn -0.095106 0.030902 0.000000
vn -0.095106 0.030902 0.000000
vn -0.099803 0.006279 0.000000
vn -0.099803 0.006279 0.000000
vn -0.098229 -0.018738 0.000000
vn -0.098229 -0.018738 0.000000
vn -0.090483 -0.042578 0.000000
vn -0.090483 -0.042578 0.000000
vn -0.077051 -0.063742 0.000000
vn -0.077051 -0.063742 0.000000
vn -0.058779 -0.080902 0.000000
vn -0.058779 -0.080902 0.000000
vn -0.036812 -0.092978 0.000000
vn -0.036812 -0.092978 0.000000
vn -0.012533 -0.099211 0.000000
vn -0.012533 -0.099211 0.000000
vn 0.012533 -0.099211 0.000000
vn 0.012533 -0.099211 0.000000
vn 0.036812 -0.092978 0.000000
vn 0.036812 -0.092978 0.000000
vn 0.058779 -0.080902 0.000000
vn 0.058779 -0.080902 0.000000
vn 0.077051 -0.063742 0.000000
vn 0.077051 -0.063742 0.000000
vn 0.090483 -0.042578 0.000000
vn 0.090483 -0.042578 0.000000
vn 0.098229 -0.018738 0.000000
vn 0.098229 -0.018738 0.000000
vn 0.099803 0.006279 0.000000
vn 0.099803 0.006279 0.000000
vn 0.095106 0.030902 0.000000
vn 0.095106 0.030902 0.000000
vn 0.084433 0.053583 0.000000
vn 0.084433 0.053583 0.000000
vn 0.068455 0.072897 0.000000
vn 0.068455 0.072897 0.000000
vn 0.048175 0.087631 0.000000
vn 0.048175 0.087631 0.000000
vn 0.024869 0.096858 0.000000
usemtl Steel_-_Satin
f 1/1/1 2/2/2 4/3/3
f 4/3/3 2/2/2 3/4/4
f 4/5/5 5/6/6 1/7/7
f 1/7/7 5/6/6 6/8/8
f 1/9/9 23/10/10 2/11/11
f 2/11/11 23/10/10 14/12/12
f 2/11/11 14/12/12 51/13/13
f 51/13/13 14/12/12 50/14/14
f 50/14/14 14/12/12 49/15/15
f 49/15/15 14/12/12 15/16/16
f 49/15/15 15/16/16 16/17/17
f 6/18/18 34/19/19 1/9/9
f 1/9/9 34/19/19 35/20/20
f 1/9/9 35/20/20 23/10/10
f 23/10/10 35/20/20 22/21/21
f 22/21/21 35/20/20 21/22/22
f 21/22/22 35/20/20 36/23/23
f 21/22/22 36/23/23 66/24/24
f 66/24/24 36/23/23 65/25/25
f 65/25/25 36/23/23 64/26/26
f 64/26/26 36/23/23 37/27/27
f 64/26/26 37/27/27 27/28/28
f 27/28/28 37/27/27 26/29/29
f 26/29/29 37/27/27 25/30/30
f 25/30/30 37/27/27 7/31/31
f 25/30/30 7/31/31 8/32/32
f 6/18/18 7/31/31 34/19/19
f 34/19/19 7/31/31 37/27/27
f 9/33/33 56/34/34 8/32/32
f 8/32/32 56/34/34 57/35/35
f 8/32/32 57/35/35 24/36/36
f 24/36/36 57/35/35 58/37/37
f 24/36/36 58/37/37 33/38/38
f 33/38/38 58/37/37 59/39/39
f 33/38/38 59/39/39 32/40/40
f 32/40/40 59/39/39 31/41/41
f 31/41/41 59/39/39 60/42/42
f 31/41/41 60/42/42 30/43/43
f 30/43/43 60/42/42 61/44/44
f 30/43/43 61/44/44 29/45/45
f 29/45/45 61/44/44 62/46/46
f 29/45/45 62/46/46 28/47/47
f 28/47/47 62/46/46 38/48/48
f 28/47/47 38/48/48 63/49/49
f 63/49/49 38/48/48 39/50/50
f 63/49/49 39/50/50 72/51/51
f 72/51/51 39/50/50 40/52/52
f 72/51/51 40/52/52 71/53/53
f 71/53/53 40/52/52 41/54/54
f 71/53/53 41/54/54 70/55/55
f 70/55/55 41/54/54 42/56/56
f 70/55/55 42/56/56 69/57/57
f 69/57/57 42/56/56 68/58/58
f 68/58/58 42/56/56 43/59/59
f 68/58/58 43/59/59 67/60/60
f 67/60/60 43/59/59 44/61/61
f 67/60/60 44/61/61 20/62/62
f 20/62/62 44/61/61 45/63/63
f 20/62/62 45/63/63 19/64/64
f 19/64/64 45/63/63 46/65/65
f 19/64/64 46/65/65 18/66/66
f 18/66/66 46/65/65 47/67/67
f 18/66/66 47/67/67 17/68/68
f 17/68/68 47/67/67 48/69/69
f 17/68/68 48/69/69 16/17/17
f 16/17/17 48/69/69 49/15/15
f 56/34/34 9/33/33 55/70/70
f 55/70/70 9/33/33 10/71/71
f 55/70/70 10/71/71 54/72/72
f 54/72/72 10/71/71 11/73/73
f 54/72/72 11/73/73 53/74/74
f 53/74/74 11/73/73 12/75/75
f 53/74/74 12/75/75 52/76/76
f 52/76/76 12/75/75 13/77/77
f 52/76/76 13/77/77 2/11/11
f 20/62/62 21/22/22 67/60/60
f 67/60/60 21/22/22 66/24/24
f 24/36/36 25/30/30 8/32/32
f 64/26/26 27/28/28 63/49/49
f 63/49/49 27/28/28 28/47/47
f 51/13/13 52/76/76 2/11/11
f 8/78/78 7/79/79 74/80/80
f 74/80/80 7/79/79 73/81/81
f 3/82/82 75/83/83 4/84/84
f 4/84/84 75/83/83 76/85/85
f 4/84/84 76/85/85 78/86/86
f 78/86/86 76/85/85 77/87/87
f 79/88/88 98/89/89 78/86/86
f 78/86/86 98/89/89 99/90/90
f 78/86/86 99/90/90 4/84/84
f 4/84/84 99/90/90 5/91/91
f 5/91/91 99/90/90 73/92/92
f 73/92/92 99/90/90 100/93/93
f 73/92/92 100/93/93 94/94/94
f 94/94/94 100/93/93 93/95/95
f 93/95/95 100/93/93 92/96/96
f 92/96/96 100/93/93 101/97/97
f 92/96/96 101/97/97 87/98/98
f 87/98/98 101/97/97 86/99/99
f 86/99/99 101/97/97 85/100/100
f 85/100/100 101/97/97 80/101/101
f 85/100/100 80/101/101 82/102/102
f 82/102/102 80/101/101 81/103/103
f 79/88/88 80/101/101 98/89/89
f 98/89/89 80/101/101 101/97/97
f 82/102/102 83/104/104 85/100/100
f 85/100/100 83/104/104 84/105/105
f 88/106/106 89/107/107 87/98/98
f 87/98/98 89/107/107 90/108/108
f 87/98/98 90/108/108 92/96/96
f 92/96/96 90/108/108 91/109/109
f 95/110/110 96/111/111 94/94/94
f 94/94/94 96/111/111 97/112/112
f 94/94/94 97/112/112 73/92/92
f 73/92/92 97/112/112 74/113/113
f 7/114/114 6/115/115 73/116/116
f 73/116/116 6/115/115 5/117/117
f 27/118/118 26/119/119 92/120/120
f 92/120/120 26/119/119 93/121/121
f 92/122/122 91/123/123 27/124/124
f 27/124/124 91/123/123 28/125/125
f 95/126/126 94/127/127 24/128/128
f 24/128/128 94/127/127 25/129/129
f 94/130/130 93/131/131 25/132/132
f 25/132/132 93/131/131 26/133/133
f 23/134/134 22/135/135 78/136/136
f 78/136/136 22/135/135 79/137/137
f 78/138/138 77/139/139 23/140/140
f 23/140/140 77/139/139 14/141/141
f 81/142/142 80/143/143 20/144/144
f 20/144/144 80/143/143 21/145/145
f 80/146/146 79/147/147 21/148/148
f 21/148/148 79/147/147 22/149/149
f 64/150/150 63/151/151 87/152/152
f 87/152/152 63/151/151 88/153/153
f 87/154/154 86/155/155 64/156/156
f 64/156/156 86/155/155 65/157/157
f 67/158/158 66/159/159 84/160/160
f 84/160/160 66/159/159 85/161/161
f 66/162/162 65/163/163 85/164/164
f 85/164/164 65/163/163 86/165/165
f 99/166/166 98/167/167 34/168/168
f 34/168/168 98/167/167 35/169/169
f 34/170/170 37/171/171 99/172/172
f 99/172/172 37/171/171 100/173/173
f 37/174/174 36/175/175 100/176/176
f 100/176/176 36/175/175 101/177/177
f 98/178/178 101/179/179 35/180/180
f 35/180/180 101/179/179 36/181/181
f 102/182/182 103/183/183 117/184/184
f 117/184/184 103/183/183 104/185/185
f 117/184/184 104/185/185 116/186/186
f 116/186/186 104/185/185 105/187/187
f 116/186/186 105/187/187 115/188/188
f 115/188/188 105/187/187 106/189/189
f 115/188/188 106/189/189 114/190/190
f 114/190/190 106/189/189 107/191/191
f 114/190/190 107/191/191 113/192/192
f 113/192/192 107/191/191 108/193/193
f 113/192/192 108/193/193 112/194/194
f 112/194/194 108/193/193 109/195/195
f 112/194/194 109/195/195 111/196/196
f 111/196/196 109/195/195 110/197/197
f 118/198/198 119/199/199 133/200/200
f 133/200/200 119/199/199 120/201/201
f 133/200/200 120/201/201 132/202/202
f 132/202/202 120/201/201 121/203/203
f 132/202/202 121/203/203 131/204/204
f 131/204/204 121/203/203 122/205/205
f 131/204/204 122/205/205 130/206/206
f 130/206/206 122/205/205 123/207/207
f 130/206/206 123/207/207 129/208/208
f 129/208/208 123/207/207 124/209/209
f 129/208/208 124/209/209 128/210/210
f 128/210/210 124/209/209 125/211/211
f 128/210/210 125/211/211 127/212/212
f 127/212/212 125/211/211 126/213/213
f 111/214/214 110/215/215 126/216/216
f 126/216/216 110/215/215 134/217/217
f 126/216/216 134/217/217 127/218/218
f 102/219/219 119/220/220 103/221/221
f 103/221/221 119/220/220 135/222/222
f 135/222/222 119/220/220 118/223/223
f 134/224/224 110/225/225 141/226/226
f 141/226/226 110/225/225 109/227/227
f 141/226/226 109/227/227 140/228/228
f 140/228/228 109/227/227 108/229/229
f 140/228/228 108/229/229 139/230/230
f 139/230/230 108/229/229 107/231/231
f 139/230/230 107/231/231 138/232/232
f 138/232/232 107/231/231 106/233/233
f 138/232/232 106/233/233 105/234/234
f 138/232/232 105/234/234 137/235/235
f 137/235/235 105/234/234 104/236/236
f 137/235/235 104/236/236 136/237/237
f 136/237/237 104/236/236 103/238/238
f 136/237/237 103/238/238 135/239/239
f 157/240/240 142/241/241 156/242/242
f 156/242/242 142/241/241 143/243/243
f 156/242/242 143/243/243 155/244/244
f 155/244/244 143/243/243 144/245/245
f 155/244/244 144/245/245 154/246/246
f 154/246/246 144/245/245 145/247/247
f 154/246/246 145/247/247 153/248/248
f 153/248/248 145/247/247 146/249/249
f 153/248/248 146/249/249 152/250/250
f 152/250/250 146/249/249 147/251/251
f 152/250/250 147/251/251 151/252/252
f 151/252/252 147/251/251 148/253/253
f 151/252/252 148/253/253 150/254/254
f 150/254/254 148/253/253 149/255/255
f 165/256/256 149/257/257 164/258/258
f 164/258/258 149/257/257 148/259/259
f 164/258/258 148/259/259 163/260/260
f 163/260/260 148/259/259 147/261/261
f 163/260/260 147/261/261 162/262/262
f 162/262/262 147/261/261 146/263/263
f 162/262/262 146/263/263 145/264/264
f 162/262/262 145/264/264 161/265/265
f 161/265/265 145/264/264 144/266/266
f 161/265/265 144/266/266 160/267/267
f 160/267/267 144/266/266 143/268/268
f 160/267/267 143/268/268 159/269/269
f 159/269/269 143/268/268 142/270/270
f 159/269/269 142/270/270 158/271/271
f 150/272/272 149/273/273 167/274/274
f 167/274/274 149/273/273 165/275/275
f 167/274/274 165/275/275 166/276/276
f 157/277/277 168/278/278 142/279/279
f 142/279/279 168/278/278 158/280/280
f 158/280/280 168/278/278 169/281/281
f 185/282/282 170/283/283 184/284/284
f 184/284/284 170/283/283 171/285/285
f 184/284/284 171/285/285 183/286/286
f 183/286/286 171/285/285 172/287/287
f 183/286/286 172/287/287 182/288/288
f 182/288/288 172/287/287 173/289/289
f 182/288/288 173/289/289 181/290/290
f 181/290/290 173/289/289 174/291/291
f 181/290/290 174/291/291 180/292/292
f 180/292/292 174/291/291 175/293/293
f 180/292/292 175/293/293 179/294/294
f 179/294/294 175/293/293 176/295/295
f 179/294/294 176/295/295 178/296/296
f 178/296/296 176/295/295 177/297/297
f 193/298/298 177/299/299 192/300/300
f 192/300/300 177/299/299 176/301/301
f 192/300/300 176/301/301 191/302/302
f 191/302/302 176/301/301 175/303/303
f 191/302/302 175/303/303 190/304/304
f 190/304/304 175/303/303 174/305/305
f 190/304/304 174/305/305 173/306/306
f 190/304/304 173/306/306 189/307/307
f 189/307/307 173/306/306 172/308/308
f 189/307/307 172/308/308 188/309/309
f 188/309/309 172/308/308 171/310/310
f 188/309/309 171/310/310 187/311/311
f 187/311/311 171/310/310 170/312/312
f 187/311/311 170/312/312 186/313/313
f 178/314/314 177/315/315 195/316/316
f 195/316/316 177/315/315 193/317/317
f 195/316/316 193/317/317 194/318/318
f 185/319/319 196/320/320 170/321/321
f 170/321/321 196/320/320 186/322/322
f 186/322/322 196/320/320 197/323/323
f 198/324/324 199/325/325 213/326/326
f 213/326/326 199/325/325 200/327/327
f 213/326/326 200/327/327 212/328/328
f 212/328/328 200/327/327 201/329/329
f 212/328/328 201/329/329 211/330/330
f 211/330/330 201/329/329 202/331/331
f 211/330/330 202/331/331 210/332/332
f 210/332/332 202/331/331 203/333/333
f 210/332/332 203/333/333 209/334/334
f 209/334/334 203/333/333 204/335/335
f 209/334/334 204/335/335 208/336/336
f 208/336/336 204/335/335 205/337/337
f 208/336/336 205/337/337 207/338/338
f 207/338/338 205/337/337 206/339/339
f 214/340/340 215/341/341 229/342/342
f 229/342/342 215/341/341 216/343/343
f 229/342/342 216/343/343 228/344/344
f 228/344/344 216/343/343 217/345/345
f 228/344/344 217/345/345 227/346/346
f 227/346/346 217/345/345 218/347/347
f 227/346/346 218/347/347 226/348/348
f 226/348/348 218/347/347 219/349/349
f 226/348/348 219/349/349 225/350/350
f 225/350/350 219/349/349 220/351/351
f 225/350/350 220/351/351 224/352/352
f 224/352/352 220/351/351 221/353/353
f 224/352/352 221/353/353 223/354/354
f 223/354/354 221/353/353 222/355/355
f 207/356/356 206/357/357 222/358/358
f 222/358/358 206/357/357 230/359/359
f 222/358/358 230/359/359 223/360/360
f 198/361/361 215/362/362 199/363/363
f 199/363/363 215/362/362 231/364/364
f 231/364/364 215/362/362 214/365/365
f 230/366/366 206/367/367 237/368/368
f 237/368/368 206/367/367 205/369/369
f 237/368/368 205/369/369 236/370/370
f 236/370/370 205/369/369 204/371/371
f 236/370/370 204/371/371 235/372/372
f 235/372/372 204/371/371 203/373/373
f 235/372/372 203/373/373 234/374/374
f 234/374/374 203/373/373 202/375/375
f 234/374/374 202/375/375 201/376/376
f 234/374/374 201/376/376 233/377/377
f 233/377/377 201/376/376 200/378/378
f 233/377/377 200/378/378 232/379/379
f 232/379/379 200/378/378 199/380/380
f 232/379/379 199/380/380 231/381/381
f 214/382/382 229/383/383 231/384/384
f 231/384/384 229/383/383 232/385/385
f 232/385/385 229/383/383 228/386/386
f 232/385/385 228/386/386 233/387/387
f 233/387/387 228/386/386 227/388/388
f 233/387/387 227/388/388 234/389/389
f 234/389/389 227/388/388 226/390/390
f 234/389/389 226/390/390 235/391/391
f 235/391/391 226/390/390 236/392/392
f 236/392/392 226/390/390 225/393/393
f 236/392/392 225/393/393 237/394/394
f 237/394/394 225/393/393 224/395/395
f 237/394/394 224/395/395 230/396/396
f 230/396/396 224/395/395 223/397/397
f 194/398/398 193/399/399 243/400/400
f 243/400/400 193/399/399 192/401/401
f 243/400/400 192/401/401 242/402/402
f 242/402/402 192/401/401 191/403/403
f 242/402/402 191/403/403 241/404/404
f 241/404/404 191/403/403 190/405/405
f 241/404/404 190/405/405 240/406/406
f 240/406/406 190/405/405 189/407/407
f 240/406/406 189/407/407 188/408/408
f 240/406/406 188/408/408 239/409/409
f 239/409/409 188/408/408 187/410/410
f 239/409/409 187/410/410 238/411/411
f 238/411/411 187/410/410 186/412/412
f 238/411/411 186/412/412 197/413/413
f 195/414/414 194/415/415 249/416/416
f 249/416/416 194/415/415 243/417/417
f 249/416/416 243/417/417 248/418/418
f 248/418/418 243/417/417 242/419/419
f 248/418/418 242/419/419 247/420/420
f 247/420/420 242/419/419 241/421/421
f 247/420/420 241/421/421 246/422/422
f 246/422/422 241/421/421 240/423/423
f 246/422/422 240/423/423 245/424/424
f 245/424/424 240/423/423 239/425/425
f 245/424/424 239/425/425 244/426/426
f 244/426/426 239/425/425 238/427/427
f 244/426/426 238/427/427 196/428/428
f 196/428/428 238/427/427 197/429/429
f 166/430/430 165/431/431 255/432/432
f 255/432/432 165/431/431 164/433/433
f 255/432/432 164/433/433 254/434/434
f 254/434/434 164/433/433 163/435/435
f 254/434/434 163/435/435 253/436/436
f 253/436/436 163/435/435 162/437/437
f 253/436/436 162/437/437 252/438/438
f 252/438/438 162/437/437 161/439/439
f 252/438/438 161/439/439 160/440/440
f 252/438/438 160/440/440 251/441/441
f 251/441/441 160/440/440 159/442/442
f 251/441/441 159/442/442 250/443/443
f 250/443/443 159/442/442 158/444/444
f 250/443/443 158/444/444 169/445/445
f 167/446/446 166/447/447 261/448/448
f 261/448/448 166/447/447 255/449/449
f 261/448/448 255/449/449 260/450/450
f 260/450/450 255/449/449 254/451/451
f 260/450/450 254/451/451 259/452/452
f 259/452/452 254/451/451 253/453/453
f 259/452/452 253/453/453 258/454/454
f 258/454/454 253/453/453 252/455/455
f 258/454/454 252/455/455 257/456/456
f 257/456/456 252/455/455 251/457/457
f 257/456/456 251/457/457 256/458/458
f 256/458/458 251/457/457 250/459/459
f 256/458/458 250/459/459 168/460/460
f 168/460/460 250/459/459 169/461/461
f 118/462/462 133/463/463 135/464/464
f 135/464/464 133/463/463 136/465/465
f 136/465/465 133/463/463 132/466/466
f 136/465/465 132/466/466 137/467/467
f 137/467/467 132/466/466 131/468/468
f 137/467/467 131/468/468 138/469/469
f 138/469/469 131/468/468 130/470/470
f 138/469/469 130/470/470 139/471/471
f 139/471/471 130/470/470 140/472/472
f 140/472/472 130/470/470 129/473/473
f 140/472/472 129/473/473 141/474/474
f 141/474/474 129/473/473 128/475/475
f 141/474/474 128/475/475 134/476/476
f 134/476/476 128/475/475 127/477/477
f 28/478/478 91/479/479 263/480/480
f 263/480/480 91/479/479 90/481/481
f 263/480/480 90/481/481 262/482/482
f 262/482/482 90/481/481 89/483/483
f 262/482/482 89/483/483 291/484/484
f 291/484/484 89/483/483 88/485/485
f 291/484/484 88/485/485 63/486/486
f 63/486/486 72/487/487 291/484/484
f 291/484/484 72/487/487 290/488/488
f 290/488/488 72/487/487 71/489/489
f 290/488/488 71/489/489 289/490/490
f 289/490/490 71/489/489 70/491/491
f 289/490/490 70/491/491 288/492/492
f 288/492/492 70/491/491 69/493/493
f 288/492/492 69/493/493 287/494/494
f 287/494/494 69/493/493 68/495/495
f 287/494/494 68/495/495 286/496/496
f 286/496/496 68/495/495 67/497/497
f 286/496/496 67/497/497 84/498/498
f 286/496/496 84/498/498 285/499/499
f 285/499/499 84/498/498 83/500/500
f 285/499/499 83/500/500 82/501/501
f 285/499/499 82/501/501 284/502/502
f 284/502/502 82/501/501 81/503/503
f 284/502/502 81/503/503 283/504/504
f 283/504/504 81/503/503 19/505/505
f 283/504/504 19/505/505 282/506/506
f 282/506/506 19/505/505 18/507/507
f 282/506/506 18/507/507 281/508/508
f 281/508/508 18/507/507 17/509/509
f 281/508/508 17/509/509 280/510/510
f 280/510/510 17/509/509 16/511/511
f 280/510/510 16/511/511 279/512/512
f 279/512/512 16/511/511 15/513/513
f 279/512/512 15/513/513 278/514/514
f 278/514/514 15/513/513 14/515/515
f 278/514/514 14/515/515 77/516/516
f 81/503/503 20/517/517 19/505/505
f 77/516/516 76/518/518 278/514/514
f 278/514/514 76/518/518 277/519/519
f 277/519/519 76/518/518 75/520/520
f 277/519/519 75/520/520 276/521/521
f 276/521/521 75/520/520 3/522/522
f 276/521/521 3/522/522 2/523/523
f 2/523/523 13/524/524 276/521/521
f 276/521/521 13/524/524 275/525/525
f 275/525/525 13/524/524 12/526/526
f 275/525/525 12/526/526 274/527/527
f 274/527/527 12/526/526 11/528/528
f 274/527/527 11/528/528 273/529/529
f 273/529/529 11/528/528 10/530/530
f 273/529/529 10/530/530 272/531/531
f 272/531/531 10/530/530 9/532/532
f 272/531/531 9/532/532 271/533/533
f 271/533/533 9/532/532 8/534/534
f 271/533/533 8/534/534 74/535/535
f 271/533/533 74/535/535 270/536/536
f 270/536/536 74/535/535 97/537/537
f 270/536/536 97/537/537 96/538/538
f 270/536/536 96/538/538 269/539/539
f 269/540/539 96/541/538 95/542/540
f 269/540/539 95/542/540 268/543/541
f 268/543/541 95/542/540 33/544/542
f 268/543/541 33/544/542 267/545/543
f 267/545/543 33/544/542 32/546/544
f 267/545/543 32/546/544 266/547/545
f 266/547/545 32/546/544 31/548/546
f 266/547/545 31/548/546 265/549/547
f 265/549/547 31/548/546 30/550/548
f 265/549/547 30/550/548 264/551/549
f 264/551/549 30/550/548 29/552/550
f 264/551/549 29/552/550 263/480/480
f 263/480/480 29/552/550 28/478/478
f 95/542/540 24/553/551 33/544/542
f 125/554/552 270/555/553 126/556/554
f 126/556/554 270/555/553 269/557/555
f 126/556/554 269/557/555 168/558/556
f 168/558/556 269/557/555 256/559/557
f 256/559/557 269/557/555 268/560/558
f 256/559/557 268/560/558 257/561/559
f 257/561/559 268/560/558 267/562/560
f 257/561/559 267/562/560 258/563/561
f 258/563/561 267/562/560 266/564/562
f 258/563/561 266/564/562 259/565/563
f 259/565/563 266/564/562 265/566/564
f 259/565/563 265/566/564 260/567/565
f 260/567/565 265/566/564 264/568/566
f 260/567/565 264/568/566 261/569/567
f 261/569/567 264/568/566 263/570/568
f 261/569/567 263/570/568 167/571/569
f 167/571/569 263/570/568 262/572/570
f 167/571/569 262/572/570 150/573/571
f 150/573/571 262/572/570 198/574/572
f 150/573/571 198/574/572 292/575/573
f 292/575/573 198/574/572 316/576/574
f 316/576/574 198/574/572 213/577/575
f 316/576/574 213/577/575 315/578/576
f 315/578/576 213/577/575 212/579/577
f 315/578/576 212/579/577 211/580/578
f 270/555/553 125/554/552 271/581/579
f 271/581/579 125/554/552 124/582/580
f 271/581/579 124/582/580 272/583/581
f 272/583/581 124/582/580 123/584/582
f 272/583/581 123/584/582 273/585/583
f 273/585/583 123/584/582 122/586/584
f 273/585/583 122/586/584 274/587/585
f 274/587/585 122/586/584 121/588/586
f 274/587/585 121/588/586 275/589/587
f 275/589/587 121/588/586 120/590/588
f 275/589/587 120/590/588 276/591/589
f 276/591/589 120/590/588 119/592/590
f 276/591/589 119/592/590 277/593/591
f 277/593/591 119/592/590 102/594/592
f 277/593/591 102/594/592 178/595/593
f 178/595/593 102/594/592 305/596/594
f 178/595/593 305/596/594 179/597/595
f 179/597/595 305/596/594 306/598/596
f 179/597/595 306/598/596 180/599/597
f 180/599/597 306/598/596 307/600/598
f 180/599/597 307/600/598 181/601/599
f 181/601/599 307/600/598 308/602/600
f 181/601/599 308/602/600 182/603/601
f 182/603/601 308/602/600 183/604/602
f 183/604/602 308/602/600 309/605/603
f 183/604/602 309/605/603 184/606/604
f 184/606/604 309/605/603 310/607/605
f 184/606/604 310/607/605 185/608/606
f 185/608/606 310/607/605 311/609/607
f 185/608/606 311/609/607 207/610/608
f 207/610/608 311/609/607 312/611/609
f 207/610/608 312/611/609 208/612/610
f 208/612/610 312/611/609 209/613/611
f 209/613/611 312/611/609 313/614/612
f 209/613/611 313/614/612 210/615/613
f 210/615/613 313/614/612 314/616/614
f 210/615/613 314/616/614 211/580/578
f 211/580/578 314/616/614 315/578/576
f 305/596/594 102/594/592 304/617/615
f 304/617/615 102/594/592 117/618/616
f 304/617/615 117/618/616 303/619/617
f 303/619/617 117/618/616 116/620/618
f 303/619/617 116/620/618 302/621/619
f 302/621/619 116/620/618 115/622/620
f 302/621/619 115/622/620 301/623/621
f 301/623/621 115/622/620 114/624/622
f 301/623/621 114/624/622 113/625/623
f 301/623/621 113/625/623 300/626/624
f 300/626/624 113/625/623 112/627/625
f 300/626/624 112/627/625 299/628/626
f 299/628/626 112/627/625 111/629/627
f 299/628/626 111/629/627 298/630/628
f 298/630/628 111/629/627 157/631/629
f 298/630/628 157/631/629 297/632/630
f 297/632/630 157/631/629 156/633/631
f 297/632/630 156/633/631 155/634/632
f 111/629/627 126/556/554 157/631/629
f 157/631/629 126/556/554 168/558/556
f 297/632/630 155/634/632 296/635/633
f 296/635/633 155/634/632 154/636/634
f 296/635/633 154/636/634 295/637/635
f 295/637/635 154/636/634 153/638/636
f 295/637/635 153/638/636 294/639/637
f 294/639/637 153/638/636 152/640/638
f 294/639/637 152/640/638 151/641/639
f 294/639/637 151/641/639 293/642/640
f 293/642/640 151/641/639 150/573/571
f 293/642/640 150/573/571 292/575/573
f 185/608/606 222/643/641 196/644/642
f 196/644/642 222/643/641 285/645/643
f 196/644/642 285/645/643 284/646/644
f 178/595/593 195/647/645 277/593/591
f 277/593/591 195/647/645 278/648/646
f 278/648/646 195/647/645 249/649/647
f 278/648/646 249/649/647 279/650/648
f 279/650/648 249/649/647 248/651/649
f 279/650/648 248/651/649 280/652/650
f 280/652/650 248/651/649 247/653/651
f 280/652/650 247/653/651 281/654/652
f 281/654/652 247/653/651 246/655/653
f 281/654/652 246/655/653 282/656/654
f 282/656/654 246/655/653 245/657/655
f 282/656/654 245/657/655 283/658/656
f 283/658/656 245/657/655 244/659/657
f 283/658/656 244/659/657 284/646/644
f 284/646/644 244/659/657 196/644/642
f 222/643/641 221/660/658 285/645/643
f 285/645/643 221/660/658 286/661/659
f 286/661/659 221/660/658 220/662/660
f 286/661/659 220/662/660 287/663/661
f 287/663/661 220/662/660 219/664/662
f 287/663/661 219/664/662 288/665/663
f 288/665/663 219/664/662 218/666/664
f 288/665/663 218/666/664 289/667/665
f 289/667/665 218/666/664 217/668/666
f 289/667/665 217/668/666 290/669/667
f 290/669/667 217/668/666 216/670/668
f 290/669/667 216/670/668 291/671/669
f 291/671/669 216/670/668 215/672/670
f 291/671/669 215/672/670 262/572/570
f 262/572/570 215/672/670 198/574/572
f 207/610/608 222/643/641 185/608/606
f 62/673/671 292/674/672 38/675/673
f 38/675/673 292/674/672 316/676/674
f 38/675/673 316/676/674 39/677/675
f 39/677/675 316/676/674 315/678/676
f 39/677/675 315/678/676 40/679/677
f 40/679/677 315/678/676 314/680/678
f 40/679/677 314/680/678 41/681/679
f 41/681/679 314/680/678 313/682/680
f 41/681/679 313/682/680 42/683/681
f 42/683/681 313/682/680 312/684/682
f 42/683/681 312/684/682 43/685/683
f 43/685/683 312/684/682 311/686/684
f 43/685/683 311/686/684 44/687/685
f 44/687/685 311/686/684 310/688/686
f 44/687/685 310/688/686 45/689/687
f 45/689/687 310/688/686 309/690/688
f 45/689/687 309/690/688 46/691/689
f 46/691/689 309/690/688 308/692/690
f 46/691/689 308/692/690 47/693/691
f 47/693/691 308/692/690 307/694/692
f 47/693/691 307/694/692 48/695/693
f 48/695/693 307/694/692 306/696/694
f 48/695/693 306/696/694 49/697/695
f 49/697/695 306/696/694 305/698/696
f 49/697/695 305/698/696 50/699/697
f 50/699/697 305/698/696 304/700/698
f 50/699/697 304/700/698 51/701/699
f 51/701/699 304/700/698 303/702/700
f 51/701/699 303/702/700 52/703/701
f 52/703/701 303/702/700 302/704/702
f 52/703/701 302/704/702 53/705/703
f 53/705/703 302/704/702 301/706/704
f 53/705/703 301/706/704 54/707/705
f 54/707/705 301/706/704 300/708/706
f 54/707/705 300/708/706 55/709/707
f 55/709/707 300/708/706 299/710/708
f 55/709/707 299/710/708 56/711/709
f 56/712/709 299/713/708 298/714/710
f 56/712/709 298/714/710 57/715/711
f 57/715/711 298/714/710 297/716/712
f 57/715/711 297/716/712 58/717/713
f 58/717/713 297/716/712 296/718/714
f 58/717/713 296/718/714 59/719/715
f 59/719/715 296/718/714 295/720/716
f 59/719/715 295/720/716 60/721/717
f 60/721/717 295/720/716 294/722/718
f 60/721/717 294/722/718 61/723/719
f 61/723/719 294/722/718 293/724/720
f 61/723/719 293/724/720 62/673/671
f 62/673/671 293/724/720 292/674/672
# 316 vertices
# 724 texture params
# 720 normals
# 648 facets

# 1 groups
