ISO-10303-21;
HEADER;
/* Generated by software containing ST-Developer
 * from STEP Tools, Inc. (www.steptools.com) 
 */

FILE_DESCRIPTION(
/* description */ (''),
/* implementation_level */ '2;1');

FILE_NAME(
/* name */ 'v2_wrist_interface.step',
/* time_stamp */ '2026-04-24T12:15:36-04:00',
/* author */ (''),
/* organization */ (''),
/* preprocessor_version */ 'ST-DEVELOPER v20.1',
/* originating_system */ 'Autodesk Translation Framework v15.8.0.0',
/* authorisation */ '');

FILE_SCHEMA (('AUTOMOTIVE_DESIGN { 1 0 10303 214 3 1 1 }'));
ENDSEC;

DATA;
#10=MECHANICAL_DESIGN_GEOMETRIC_PRESENTATION_REPRESENTATION('',(#13),#1065);
#11=SHAPE_REPRESENTATION_RELATIONSHIP('SRR','None',#1072,#12);
#12=ADVANCED_BREP_SHAPE_REPRESENTATION('',(#14),#1064);
#13=STYLED_ITEM('',(#1081),#14);
#14=MANIFOLD_SOLID_BREP('Body1',#633);
#15=FACE_BOUND('',#125,.T.);
#16=FACE_BOUND('',#126,.T.);
#17=FACE_BOUND('',#127,.T.);
#18=FACE_BOUND('',#130,.T.);
#19=FACE_BOUND('',#131,.T.);
#20=FACE_BOUND('',#132,.T.);
#21=FACE_BOUND('',#138,.T.);
#22=FACE_BOUND('',#139,.T.);
#23=FACE_BOUND('',#140,.T.);
#24=FACE_BOUND('',#146,.T.);
#25=FACE_BOUND('',#147,.T.);
#26=FACE_BOUND('',#148,.T.);
#27=FACE_BOUND('',#152,.T.);
#28=FACE_BOUND('',#153,.T.);
#29=FACE_BOUND('',#154,.T.);
#30=FACE_BOUND('',#157,.T.);
#31=FACE_BOUND('',#158,.T.);
#32=FACE_BOUND('',#159,.T.);
#33=FACE_BOUND('',#162,.T.);
#34=FACE_BOUND('',#163,.T.);
#35=FACE_BOUND('',#164,.T.);
#36=FACE_BOUND('',#170,.T.);
#37=FACE_BOUND('',#171,.T.);
#38=FACE_BOUND('',#172,.T.);
#39=FACE_BOUND('',#174,.T.);
#40=CIRCLE('',#649,5.2);
#41=CIRCLE('',#650,5.2);
#42=CIRCLE('',#652,1.65);
#43=CIRCLE('',#653,1.65);
#44=CIRCLE('',#655,1.65);
#45=CIRCLE('',#656,1.65);
#46=CIRCLE('',#659,1.65);
#47=CIRCLE('',#660,1.65);
#48=CIRCLE('',#662,5.2);
#49=CIRCLE('',#663,5.2);
#50=CIRCLE('',#665,1.65);
#51=CIRCLE('',#666,1.65);
#52=CIRCLE('',#670,1.65);
#53=CIRCLE('',#671,1.65);
#54=CIRCLE('',#674,1.65);
#55=CIRCLE('',#675,1.65);
#56=CIRCLE('',#677,5.2);
#57=CIRCLE('',#678,5.2);
#58=CIRCLE('',#680,1.65);
#59=CIRCLE('',#681,1.65);
#60=CIRCLE('',#683,1.65);
#61=CIRCLE('',#685,1.65);
#62=CIRCLE('',#690,1.65);
#63=CIRCLE('',#691,1.65);
#64=CIRCLE('',#693,5.2);
#65=CIRCLE('',#695,1.65);
#66=CIRCLE('',#696,1.65);
#67=CIRCLE('',#698,5.2);
#68=CIRCLE('',#700,1.65);
#69=CIRCLE('',#701,1.65);
#70=CIRCLE('',#705,1.65);
#71=CIRCLE('',#707,1.65);
#72=CYLINDRICAL_SURFACE('',#648,5.2);
#73=CYLINDRICAL_SURFACE('',#651,1.65);
#74=CYLINDRICAL_SURFACE('',#654,1.65);
#75=CYLINDRICAL_SURFACE('',#661,5.2);
#76=CYLINDRICAL_SURFACE('',#667,1.65);
#77=CYLINDRICAL_SURFACE('',#668,1.65);
#78=CYLINDRICAL_SURFACE('',#669,1.65);
#79=CYLINDRICAL_SURFACE('',#676,5.2);
#80=CYLINDRICAL_SURFACE('',#679,1.65);
#81=CYLINDRICAL_SURFACE('',#682,1.65);
#82=CYLINDRICAL_SURFACE('',#684,1.65);
#83=CYLINDRICAL_SURFACE('',#697,5.2);
#84=CYLINDRICAL_SURFACE('',#702,1.65);
#85=CYLINDRICAL_SURFACE('',#703,1.65);
#86=CYLINDRICAL_SURFACE('',#704,1.65);
#87=CYLINDRICAL_SURFACE('',#706,1.65);
#88=FACE_OUTER_BOUND('',#119,.T.);
#89=FACE_OUTER_BOUND('',#120,.T.);
#90=FACE_OUTER_BOUND('',#121,.T.);
#91=FACE_OUTER_BOUND('',#122,.T.);
#92=FACE_OUTER_BOUND('',#123,.T.);
#93=FACE_OUTER_BOUND('',#124,.T.);
#94=FACE_OUTER_BOUND('',#128,.T.);
#95=FACE_OUTER_BOUND('',#129,.T.);
#96=FACE_OUTER_BOUND('',#133,.T.);
#97=FACE_OUTER_BOUND('',#134,.T.);
#98=FACE_OUTER_BOUND('',#135,.T.);
#99=FACE_OUTER_BOUND('',#136,.T.);
#100=FACE_OUTER_BOUND('',#137,.T.);
#101=FACE_OUTER_BOUND('',#141,.T.);
#102=FACE_OUTER_BOUND('',#142,.T.);
#103=FACE_OUTER_BOUND('',#143,.T.);
#104=FACE_OUTER_BOUND('',#144,.T.);
#105=FACE_OUTER_BOUND('',#145,.T.);
#106=FACE_OUTER_BOUND('',#149,.T.);
#107=FACE_OUTER_BOUND('',#150,.T.);
#108=FACE_OUTER_BOUND('',#151,.T.);
#109=FACE_OUTER_BOUND('',#155,.T.);
#110=FACE_OUTER_BOUND('',#156,.T.);
#111=FACE_OUTER_BOUND('',#160,.T.);
#112=FACE_OUTER_BOUND('',#161,.T.);
#113=FACE_OUTER_BOUND('',#165,.T.);
#114=FACE_OUTER_BOUND('',#166,.T.);
#115=FACE_OUTER_BOUND('',#167,.T.);
#116=FACE_OUTER_BOUND('',#168,.T.);
#117=FACE_OUTER_BOUND('',#169,.T.);
#118=FACE_OUTER_BOUND('',#173,.T.);
#119=EDGE_LOOP('',(#419,#420,#421,#422));
#120=EDGE_LOOP('',(#423,#424,#425,#426));
#121=EDGE_LOOP('',(#427,#428,#429,#430));
#122=EDGE_LOOP('',(#431,#432,#433,#434));
#123=EDGE_LOOP('',(#435,#436,#437,#438));
#124=EDGE_LOOP('',(#439,#440,#441,#442));
#125=EDGE_LOOP('',(#443));
#126=EDGE_LOOP('',(#444));
#127=EDGE_LOOP('',(#445));
#128=EDGE_LOOP('',(#446,#447,#448,#449));
#129=EDGE_LOOP('',(#450,#451,#452,#453));
#130=EDGE_LOOP('',(#454));
#131=EDGE_LOOP('',(#455));
#132=EDGE_LOOP('',(#456));
#133=EDGE_LOOP('',(#457,#458,#459,#460));
#134=EDGE_LOOP('',(#461,#462,#463,#464));
#135=EDGE_LOOP('',(#465,#466,#467,#468));
#136=EDGE_LOOP('',(#469,#470,#471,#472));
#137=EDGE_LOOP('',(#473,#474,#475,#476));
#138=EDGE_LOOP('',(#477));
#139=EDGE_LOOP('',(#478));
#140=EDGE_LOOP('',(#479));
#141=EDGE_LOOP('',(#480,#481,#482,#483));
#142=EDGE_LOOP('',(#484,#485,#486,#487));
#143=EDGE_LOOP('',(#488,#489,#490,#491));
#144=EDGE_LOOP('',(#492,#493,#494,#495));
#145=EDGE_LOOP('',(#496,#497,#498,#499));
#146=EDGE_LOOP('',(#500));
#147=EDGE_LOOP('',(#501));
#148=EDGE_LOOP('',(#502));
#149=EDGE_LOOP('',(#503,#504,#505,#506));
#150=EDGE_LOOP('',(#507,#508,#509,#510,#511,#512,#513,#514));
#151=EDGE_LOOP('',(#515,#516,#517,#518));
#152=EDGE_LOOP('',(#519));
#153=EDGE_LOOP('',(#520));
#154=EDGE_LOOP('',(#521));
#155=EDGE_LOOP('',(#522,#523,#524,#525,#526,#527,#528,#529));
#156=EDGE_LOOP('',(#530,#531,#532,#533));
#157=EDGE_LOOP('',(#534));
#158=EDGE_LOOP('',(#535));
#159=EDGE_LOOP('',(#536));
#160=EDGE_LOOP('',(#537,#538,#539,#540));
#161=EDGE_LOOP('',(#541,#542,#543,#544));
#162=EDGE_LOOP('',(#545));
#163=EDGE_LOOP('',(#546));
#164=EDGE_LOOP('',(#547));
#165=EDGE_LOOP('',(#548,#549,#550,#551));
#166=EDGE_LOOP('',(#552,#553,#554,#555));
#167=EDGE_LOOP('',(#556,#557,#558,#559));
#168=EDGE_LOOP('',(#560,#561,#562,#563));
#169=EDGE_LOOP('',(#564,#565,#566,#567));
#170=EDGE_LOOP('',(#568));
#171=EDGE_LOOP('',(#569));
#172=EDGE_LOOP('',(#570));
#173=EDGE_LOOP('',(#571,#572,#573,#574,#575,#576,#577,#578));
#174=EDGE_LOOP('',(#579,#580,#581,#582,#583,#584,#585,#586));
#175=LINE('',#894,#227);
#176=LINE('',#896,#228);
#177=LINE('',#898,#229);
#178=LINE('',#899,#230);
#179=LINE('',#905,#231);
#180=LINE('',#908,#232);
#181=LINE('',#913,#233);
#182=LINE('',#919,#234);
#183=LINE('',#924,#235);
#184=LINE('',#926,#236);
#185=LINE('',#928,#237);
#186=LINE('',#929,#238);
#187=LINE('',#931,#239);
#188=LINE('',#932,#240);
#189=LINE('',#942,#241);
#190=LINE('',#945,#242);
#191=LINE('',#947,#243);
#192=LINE('',#948,#244);
#193=LINE('',#954,#245);
#194=LINE('',#956,#246);
#195=LINE('',#961,#247);
#196=LINE('',#966,#248);
#197=LINE('',#968,#249);
#198=LINE('',#970,#250);
#199=LINE('',#971,#251);
#200=LINE('',#974,#252);
#201=LINE('',#976,#253);
#202=LINE('',#977,#254);
#203=LINE('',#987,#255);
#204=LINE('',#992,#256);
#205=LINE('',#997,#257);
#206=LINE('',#1001,#258);
#207=LINE('',#1003,#259);
#208=LINE('',#1004,#260);
#209=LINE('',#1008,#261);
#210=LINE('',#1010,#262);
#211=LINE('',#1012,#263);
#212=LINE('',#1013,#264);
#213=LINE('',#1015,#265);
#214=LINE('',#1016,#266);
#215=LINE('',#1018,#267);
#216=LINE('',#1025,#268);
#217=LINE('',#1028,#269);
#218=LINE('',#1031,#270);
#219=LINE('',#1032,#271);
#220=LINE('',#1039,#272);
#221=LINE('',#1042,#273);
#222=LINE('',#1048,#274);
#223=LINE('',#1050,#275);
#224=LINE('',#1054,#276);
#225=LINE('',#1058,#277);
#226=LINE('',#1060,#278);
#227=VECTOR('',#714,10.);
#228=VECTOR('',#715,10.);
#229=VECTOR('',#716,10.);
#230=VECTOR('',#717,10.);
#231=VECTOR('',#722,10.);
#232=VECTOR('',#725,10.);
#233=VECTOR('',#730,1.65);
#234=VECTOR('',#737,1.65);
#235=VECTOR('',#742,10.);
#236=VECTOR('',#743,10.);
#237=VECTOR('',#744,10.);
#238=VECTOR('',#745,10.);
#239=VECTOR('',#748,10.);
#240=VECTOR('',#749,10.);
#241=VECTOR('',#758,10.);
#242=VECTOR('',#761,10.);
#243=VECTOR('',#764,10.);
#244=VECTOR('',#765,10.);
#245=VECTOR('',#772,1.65);
#246=VECTOR('',#775,1.65);
#247=VECTOR('',#780,1.65);
#248=VECTOR('',#785,10.);
#249=VECTOR('',#786,10.);
#250=VECTOR('',#787,10.);
#251=VECTOR('',#788,10.);
#252=VECTOR('',#791,10.);
#253=VECTOR('',#792,10.);
#254=VECTOR('',#793,10.);
#255=VECTOR('',#804,10.);
#256=VECTOR('',#809,1.65);
#257=VECTOR('',#816,1.65);
#258=VECTOR('',#821,1.65);
#259=VECTOR('',#824,10.);
#260=VECTOR('',#825,10.);
#261=VECTOR('',#828,10.);
#262=VECTOR('',#829,10.);
#263=VECTOR('',#830,10.);
#264=VECTOR('',#831,10.);
#265=VECTOR('',#834,10.);
#266=VECTOR('',#835,10.);
#267=VECTOR('',#838,10.);
#268=VECTOR('',#845,10.);
#269=VECTOR('',#848,10.);
#270=VECTOR('',#851,10.);
#271=VECTOR('',#852,10.);
#272=VECTOR('',#859,10.);
#273=VECTOR('',#864,10.);
#274=VECTOR('',#871,1.65);
#275=VECTOR('',#874,1.65);
#276=VECTOR('',#879,1.65);
#277=VECTOR('',#884,1.65);
#278=VECTOR('',#887,10.);
#279=VERTEX_POINT('',#892);
#280=VERTEX_POINT('',#893);
#281=VERTEX_POINT('',#895);
#282=VERTEX_POINT('',#897);
#283=VERTEX_POINT('',#901);
#284=VERTEX_POINT('',#902);
#285=VERTEX_POINT('',#904);
#286=VERTEX_POINT('',#906);
#287=VERTEX_POINT('',#910);
#288=VERTEX_POINT('',#912);
#289=VERTEX_POINT('',#916);
#290=VERTEX_POINT('',#918);
#291=VERTEX_POINT('',#922);
#292=VERTEX_POINT('',#923);
#293=VERTEX_POINT('',#925);
#294=VERTEX_POINT('',#927);
#295=VERTEX_POINT('',#933);
#296=VERTEX_POINT('',#935);
#297=VERTEX_POINT('',#938);
#298=VERTEX_POINT('',#939);
#299=VERTEX_POINT('',#941);
#300=VERTEX_POINT('',#943);
#301=VERTEX_POINT('',#949);
#302=VERTEX_POINT('',#951);
#303=VERTEX_POINT('',#958);
#304=VERTEX_POINT('',#960);
#305=VERTEX_POINT('',#964);
#306=VERTEX_POINT('',#965);
#307=VERTEX_POINT('',#967);
#308=VERTEX_POINT('',#969);
#309=VERTEX_POINT('',#973);
#310=VERTEX_POINT('',#975);
#311=VERTEX_POINT('',#978);
#312=VERTEX_POINT('',#980);
#313=VERTEX_POINT('',#983);
#314=VERTEX_POINT('',#985);
#315=VERTEX_POINT('',#989);
#316=VERTEX_POINT('',#991);
#317=VERTEX_POINT('',#995);
#318=VERTEX_POINT('',#999);
#319=VERTEX_POINT('',#1006);
#320=VERTEX_POINT('',#1007);
#321=VERTEX_POINT('',#1009);
#322=VERTEX_POINT('',#1011);
#323=VERTEX_POINT('',#1019);
#324=VERTEX_POINT('',#1021);
#325=VERTEX_POINT('',#1024);
#326=VERTEX_POINT('',#1026);
#327=VERTEX_POINT('',#1030);
#328=VERTEX_POINT('',#1033);
#329=VERTEX_POINT('',#1035);
#330=VERTEX_POINT('',#1038);
#331=VERTEX_POINT('',#1043);
#332=VERTEX_POINT('',#1045);
#333=VERTEX_POINT('',#1052);
#334=VERTEX_POINT('',#1056);
#335=EDGE_CURVE('',#279,#280,#175,.T.);
#336=EDGE_CURVE('',#280,#281,#176,.T.);
#337=EDGE_CURVE('',#281,#282,#177,.T.);
#338=EDGE_CURVE('',#282,#279,#178,.T.);
#339=EDGE_CURVE('',#283,#284,#40,.T.);
#340=EDGE_CURVE('',#284,#285,#179,.T.);
#341=EDGE_CURVE('',#285,#286,#41,.T.);
#342=EDGE_CURVE('',#283,#286,#180,.T.);
#343=EDGE_CURVE('',#287,#287,#42,.T.);
#344=EDGE_CURVE('',#287,#288,#181,.T.);
#345=EDGE_CURVE('',#288,#288,#43,.F.);
#346=EDGE_CURVE('',#289,#289,#44,.T.);
#347=EDGE_CURVE('',#289,#290,#182,.T.);
#348=EDGE_CURVE('',#290,#290,#45,.F.);
#349=EDGE_CURVE('',#291,#292,#183,.T.);
#350=EDGE_CURVE('',#293,#291,#184,.T.);
#351=EDGE_CURVE('',#294,#293,#185,.T.);
#352=EDGE_CURVE('',#292,#294,#186,.T.);
#353=EDGE_CURVE('',#281,#294,#187,.T.);
#354=EDGE_CURVE('',#292,#280,#188,.T.);
#355=EDGE_CURVE('',#295,#295,#46,.T.);
#356=EDGE_CURVE('',#296,#296,#47,.T.);
#357=EDGE_CURVE('',#297,#298,#48,.T.);
#358=EDGE_CURVE('',#297,#299,#189,.T.);
#359=EDGE_CURVE('',#300,#299,#49,.T.);
#360=EDGE_CURVE('',#298,#300,#190,.T.);
#361=EDGE_CURVE('',#284,#298,#191,.T.);
#362=EDGE_CURVE('',#300,#285,#192,.T.);
#363=EDGE_CURVE('',#301,#301,#50,.F.);
#364=EDGE_CURVE('',#302,#302,#51,.F.);
#365=EDGE_CURVE('',#295,#302,#193,.T.);
#366=EDGE_CURVE('',#296,#301,#194,.T.);
#367=EDGE_CURVE('',#303,#303,#52,.T.);
#368=EDGE_CURVE('',#303,#304,#195,.T.);
#369=EDGE_CURVE('',#304,#304,#53,.F.);
#370=EDGE_CURVE('',#305,#306,#196,.T.);
#371=EDGE_CURVE('',#307,#305,#197,.T.);
#372=EDGE_CURVE('',#308,#307,#198,.T.);
#373=EDGE_CURVE('',#306,#308,#199,.T.);
#374=EDGE_CURVE('',#309,#286,#200,.T.);
#375=EDGE_CURVE('',#310,#309,#201,.T.);
#376=EDGE_CURVE('',#283,#310,#202,.T.);
#377=EDGE_CURVE('',#311,#311,#54,.F.);
#378=EDGE_CURVE('',#312,#312,#55,.F.);
#379=EDGE_CURVE('',#310,#313,#56,.T.);
#380=EDGE_CURVE('',#314,#309,#57,.T.);
#381=EDGE_CURVE('',#313,#314,#203,.T.);
#382=EDGE_CURVE('',#315,#315,#58,.T.);
#383=EDGE_CURVE('',#315,#316,#204,.T.);
#384=EDGE_CURVE('',#316,#316,#59,.F.);
#385=EDGE_CURVE('',#317,#317,#60,.T.);
#386=EDGE_CURVE('',#317,#312,#205,.T.);
#387=EDGE_CURVE('',#318,#318,#61,.T.);
#388=EDGE_CURVE('',#318,#311,#206,.T.);
#389=EDGE_CURVE('',#305,#279,#207,.T.);
#390=EDGE_CURVE('',#307,#282,#208,.T.);
#391=EDGE_CURVE('',#319,#320,#209,.T.);
#392=EDGE_CURVE('',#320,#321,#210,.T.);
#393=EDGE_CURVE('',#321,#322,#211,.T.);
#394=EDGE_CURVE('',#322,#319,#212,.T.);
#395=EDGE_CURVE('',#308,#321,#213,.T.);
#396=EDGE_CURVE('',#322,#293,#214,.T.);
#397=EDGE_CURVE('',#320,#306,#215,.T.);
#398=EDGE_CURVE('',#323,#323,#62,.T.);
#399=EDGE_CURVE('',#324,#324,#63,.T.);
#400=EDGE_CURVE('',#313,#325,#216,.T.);
#401=EDGE_CURVE('',#326,#325,#64,.T.);
#402=EDGE_CURVE('',#297,#326,#217,.T.);
#403=EDGE_CURVE('',#326,#327,#218,.T.);
#404=EDGE_CURVE('',#327,#299,#219,.T.);
#405=EDGE_CURVE('',#328,#328,#65,.F.);
#406=EDGE_CURVE('',#329,#329,#66,.F.);
#407=EDGE_CURVE('',#325,#330,#220,.T.);
#408=EDGE_CURVE('',#330,#327,#67,.T.);
#409=EDGE_CURVE('',#330,#314,#221,.T.);
#410=EDGE_CURVE('',#331,#331,#68,.F.);
#411=EDGE_CURVE('',#332,#332,#69,.F.);
#412=EDGE_CURVE('',#323,#332,#222,.T.);
#413=EDGE_CURVE('',#324,#331,#223,.T.);
#414=EDGE_CURVE('',#333,#333,#70,.T.);
#415=EDGE_CURVE('',#333,#329,#224,.T.);
#416=EDGE_CURVE('',#334,#334,#71,.T.);
#417=EDGE_CURVE('',#334,#328,#225,.T.);
#418=EDGE_CURVE('',#319,#291,#226,.T.);
#419=ORIENTED_EDGE('',*,*,#335,.T.);
#420=ORIENTED_EDGE('',*,*,#336,.T.);
#421=ORIENTED_EDGE('',*,*,#337,.T.);
#422=ORIENTED_EDGE('',*,*,#338,.T.);
#423=ORIENTED_EDGE('',*,*,#339,.T.);
#424=ORIENTED_EDGE('',*,*,#340,.T.);
#425=ORIENTED_EDGE('',*,*,#341,.T.);
#426=ORIENTED_EDGE('',*,*,#342,.F.);
#427=ORIENTED_EDGE('',*,*,#343,.F.);
#428=ORIENTED_EDGE('',*,*,#344,.T.);
#429=ORIENTED_EDGE('',*,*,#345,.F.);
#430=ORIENTED_EDGE('',*,*,#344,.F.);
#431=ORIENTED_EDGE('',*,*,#346,.F.);
#432=ORIENTED_EDGE('',*,*,#347,.T.);
#433=ORIENTED_EDGE('',*,*,#348,.F.);
#434=ORIENTED_EDGE('',*,*,#347,.F.);
#435=ORIENTED_EDGE('',*,*,#349,.F.);
#436=ORIENTED_EDGE('',*,*,#350,.F.);
#437=ORIENTED_EDGE('',*,*,#351,.F.);
#438=ORIENTED_EDGE('',*,*,#352,.F.);
#439=ORIENTED_EDGE('',*,*,#353,.F.);
#440=ORIENTED_EDGE('',*,*,#336,.F.);
#441=ORIENTED_EDGE('',*,*,#354,.F.);
#442=ORIENTED_EDGE('',*,*,#352,.T.);
#443=ORIENTED_EDGE('',*,*,#343,.T.);
#444=ORIENTED_EDGE('',*,*,#355,.F.);
#445=ORIENTED_EDGE('',*,*,#356,.F.);
#446=ORIENTED_EDGE('',*,*,#357,.F.);
#447=ORIENTED_EDGE('',*,*,#358,.T.);
#448=ORIENTED_EDGE('',*,*,#359,.F.);
#449=ORIENTED_EDGE('',*,*,#360,.F.);
#450=ORIENTED_EDGE('',*,*,#361,.T.);
#451=ORIENTED_EDGE('',*,*,#360,.T.);
#452=ORIENTED_EDGE('',*,*,#362,.T.);
#453=ORIENTED_EDGE('',*,*,#340,.F.);
#454=ORIENTED_EDGE('',*,*,#363,.T.);
#455=ORIENTED_EDGE('',*,*,#345,.T.);
#456=ORIENTED_EDGE('',*,*,#364,.F.);
#457=ORIENTED_EDGE('',*,*,#355,.T.);
#458=ORIENTED_EDGE('',*,*,#365,.T.);
#459=ORIENTED_EDGE('',*,*,#364,.T.);
#460=ORIENTED_EDGE('',*,*,#365,.F.);
#461=ORIENTED_EDGE('',*,*,#356,.T.);
#462=ORIENTED_EDGE('',*,*,#366,.T.);
#463=ORIENTED_EDGE('',*,*,#363,.F.);
#464=ORIENTED_EDGE('',*,*,#366,.F.);
#465=ORIENTED_EDGE('',*,*,#367,.T.);
#466=ORIENTED_EDGE('',*,*,#368,.T.);
#467=ORIENTED_EDGE('',*,*,#369,.T.);
#468=ORIENTED_EDGE('',*,*,#368,.F.);
#469=ORIENTED_EDGE('',*,*,#370,.F.);
#470=ORIENTED_EDGE('',*,*,#371,.F.);
#471=ORIENTED_EDGE('',*,*,#372,.F.);
#472=ORIENTED_EDGE('',*,*,#373,.F.);
#473=ORIENTED_EDGE('',*,*,#374,.F.);
#474=ORIENTED_EDGE('',*,*,#375,.F.);
#475=ORIENTED_EDGE('',*,*,#376,.F.);
#476=ORIENTED_EDGE('',*,*,#342,.T.);
#477=ORIENTED_EDGE('',*,*,#348,.T.);
#478=ORIENTED_EDGE('',*,*,#377,.F.);
#479=ORIENTED_EDGE('',*,*,#378,.T.);
#480=ORIENTED_EDGE('',*,*,#379,.F.);
#481=ORIENTED_EDGE('',*,*,#375,.T.);
#482=ORIENTED_EDGE('',*,*,#380,.F.);
#483=ORIENTED_EDGE('',*,*,#381,.F.);
#484=ORIENTED_EDGE('',*,*,#382,.T.);
#485=ORIENTED_EDGE('',*,*,#383,.T.);
#486=ORIENTED_EDGE('',*,*,#384,.T.);
#487=ORIENTED_EDGE('',*,*,#383,.F.);
#488=ORIENTED_EDGE('',*,*,#385,.T.);
#489=ORIENTED_EDGE('',*,*,#386,.T.);
#490=ORIENTED_EDGE('',*,*,#378,.F.);
#491=ORIENTED_EDGE('',*,*,#386,.F.);
#492=ORIENTED_EDGE('',*,*,#387,.T.);
#493=ORIENTED_EDGE('',*,*,#388,.T.);
#494=ORIENTED_EDGE('',*,*,#377,.T.);
#495=ORIENTED_EDGE('',*,*,#388,.F.);
#496=ORIENTED_EDGE('',*,*,#389,.T.);
#497=ORIENTED_EDGE('',*,*,#338,.F.);
#498=ORIENTED_EDGE('',*,*,#390,.F.);
#499=ORIENTED_EDGE('',*,*,#371,.T.);
#500=ORIENTED_EDGE('',*,*,#385,.F.);
#501=ORIENTED_EDGE('',*,*,#346,.T.);
#502=ORIENTED_EDGE('',*,*,#387,.F.);
#503=ORIENTED_EDGE('',*,*,#391,.T.);
#504=ORIENTED_EDGE('',*,*,#392,.T.);
#505=ORIENTED_EDGE('',*,*,#393,.T.);
#506=ORIENTED_EDGE('',*,*,#394,.T.);
#507=ORIENTED_EDGE('',*,*,#393,.F.);
#508=ORIENTED_EDGE('',*,*,#395,.F.);
#509=ORIENTED_EDGE('',*,*,#372,.T.);
#510=ORIENTED_EDGE('',*,*,#390,.T.);
#511=ORIENTED_EDGE('',*,*,#337,.F.);
#512=ORIENTED_EDGE('',*,*,#353,.T.);
#513=ORIENTED_EDGE('',*,*,#351,.T.);
#514=ORIENTED_EDGE('',*,*,#396,.F.);
#515=ORIENTED_EDGE('',*,*,#395,.T.);
#516=ORIENTED_EDGE('',*,*,#392,.F.);
#517=ORIENTED_EDGE('',*,*,#397,.T.);
#518=ORIENTED_EDGE('',*,*,#373,.T.);
#519=ORIENTED_EDGE('',*,*,#382,.F.);
#520=ORIENTED_EDGE('',*,*,#398,.T.);
#521=ORIENTED_EDGE('',*,*,#399,.T.);
#522=ORIENTED_EDGE('',*,*,#376,.T.);
#523=ORIENTED_EDGE('',*,*,#379,.T.);
#524=ORIENTED_EDGE('',*,*,#400,.T.);
#525=ORIENTED_EDGE('',*,*,#401,.F.);
#526=ORIENTED_EDGE('',*,*,#402,.F.);
#527=ORIENTED_EDGE('',*,*,#357,.T.);
#528=ORIENTED_EDGE('',*,*,#361,.F.);
#529=ORIENTED_EDGE('',*,*,#339,.F.);
#530=ORIENTED_EDGE('',*,*,#402,.T.);
#531=ORIENTED_EDGE('',*,*,#403,.T.);
#532=ORIENTED_EDGE('',*,*,#404,.T.);
#533=ORIENTED_EDGE('',*,*,#358,.F.);
#534=ORIENTED_EDGE('',*,*,#369,.F.);
#535=ORIENTED_EDGE('',*,*,#405,.T.);
#536=ORIENTED_EDGE('',*,*,#406,.T.);
#537=ORIENTED_EDGE('',*,*,#401,.T.);
#538=ORIENTED_EDGE('',*,*,#407,.T.);
#539=ORIENTED_EDGE('',*,*,#408,.T.);
#540=ORIENTED_EDGE('',*,*,#403,.F.);
#541=ORIENTED_EDGE('',*,*,#400,.F.);
#542=ORIENTED_EDGE('',*,*,#381,.T.);
#543=ORIENTED_EDGE('',*,*,#409,.F.);
#544=ORIENTED_EDGE('',*,*,#407,.F.);
#545=ORIENTED_EDGE('',*,*,#410,.F.);
#546=ORIENTED_EDGE('',*,*,#384,.F.);
#547=ORIENTED_EDGE('',*,*,#411,.T.);
#548=ORIENTED_EDGE('',*,*,#398,.F.);
#549=ORIENTED_EDGE('',*,*,#412,.T.);
#550=ORIENTED_EDGE('',*,*,#411,.F.);
#551=ORIENTED_EDGE('',*,*,#412,.F.);
#552=ORIENTED_EDGE('',*,*,#399,.F.);
#553=ORIENTED_EDGE('',*,*,#413,.T.);
#554=ORIENTED_EDGE('',*,*,#410,.T.);
#555=ORIENTED_EDGE('',*,*,#413,.F.);
#556=ORIENTED_EDGE('',*,*,#414,.T.);
#557=ORIENTED_EDGE('',*,*,#415,.T.);
#558=ORIENTED_EDGE('',*,*,#406,.F.);
#559=ORIENTED_EDGE('',*,*,#415,.F.);
#560=ORIENTED_EDGE('',*,*,#416,.F.);
#561=ORIENTED_EDGE('',*,*,#417,.T.);
#562=ORIENTED_EDGE('',*,*,#405,.F.);
#563=ORIENTED_EDGE('',*,*,#417,.F.);
#564=ORIENTED_EDGE('',*,*,#396,.T.);
#565=ORIENTED_EDGE('',*,*,#350,.T.);
#566=ORIENTED_EDGE('',*,*,#418,.F.);
#567=ORIENTED_EDGE('',*,*,#394,.F.);
#568=ORIENTED_EDGE('',*,*,#414,.F.);
#569=ORIENTED_EDGE('',*,*,#367,.F.);
#570=ORIENTED_EDGE('',*,*,#416,.T.);
#571=ORIENTED_EDGE('',*,*,#389,.F.);
#572=ORIENTED_EDGE('',*,*,#370,.T.);
#573=ORIENTED_EDGE('',*,*,#397,.F.);
#574=ORIENTED_EDGE('',*,*,#391,.F.);
#575=ORIENTED_EDGE('',*,*,#418,.T.);
#576=ORIENTED_EDGE('',*,*,#349,.T.);
#577=ORIENTED_EDGE('',*,*,#354,.T.);
#578=ORIENTED_EDGE('',*,*,#335,.F.);
#579=ORIENTED_EDGE('',*,*,#374,.T.);
#580=ORIENTED_EDGE('',*,*,#341,.F.);
#581=ORIENTED_EDGE('',*,*,#362,.F.);
#582=ORIENTED_EDGE('',*,*,#359,.T.);
#583=ORIENTED_EDGE('',*,*,#404,.F.);
#584=ORIENTED_EDGE('',*,*,#408,.F.);
#585=ORIENTED_EDGE('',*,*,#409,.T.);
#586=ORIENTED_EDGE('',*,*,#380,.T.);
#587=PLANE('',#647);
#588=PLANE('',#657);
#589=PLANE('',#658);
#590=PLANE('',#664);
#591=PLANE('',#672);
#592=PLANE('',#673);
#593=PLANE('',#686);
#594=PLANE('',#687);
#595=PLANE('',#688);
#596=PLANE('',#689);
#597=PLANE('',#692);
#598=PLANE('',#694);
#599=PLANE('',#699);
#600=PLANE('',#708);
#601=PLANE('',#709);
#602=ADVANCED_FACE('',(#88),#587,.T.);
#603=ADVANCED_FACE('',(#89),#72,.F.);
#604=ADVANCED_FACE('',(#90),#73,.F.);
#605=ADVANCED_FACE('',(#91),#74,.F.);
#606=ADVANCED_FACE('',(#92),#588,.F.);
#607=ADVANCED_FACE('',(#93,#15,#16,#17),#589,.F.);
#608=ADVANCED_FACE('',(#94),#75,.F.);
#609=ADVANCED_FACE('',(#95,#18,#19,#20),#590,.F.);
#610=ADVANCED_FACE('',(#96),#76,.F.);
#611=ADVANCED_FACE('',(#97),#77,.F.);
#612=ADVANCED_FACE('',(#98),#78,.F.);
#613=ADVANCED_FACE('',(#99),#591,.F.);
#614=ADVANCED_FACE('',(#100,#21,#22,#23),#592,.F.);
#615=ADVANCED_FACE('',(#101),#79,.F.);
#616=ADVANCED_FACE('',(#102),#80,.F.);
#617=ADVANCED_FACE('',(#103),#81,.F.);
#618=ADVANCED_FACE('',(#104),#82,.F.);
#619=ADVANCED_FACE('',(#105,#24,#25,#26),#593,.F.);
#620=ADVANCED_FACE('',(#106),#594,.T.);
#621=ADVANCED_FACE('',(#107),#595,.T.);
#622=ADVANCED_FACE('',(#108,#27,#28,#29),#596,.T.);
#623=ADVANCED_FACE('',(#109),#597,.F.);
#624=ADVANCED_FACE('',(#110,#30,#31,#32),#598,.T.);
#625=ADVANCED_FACE('',(#111),#83,.F.);
#626=ADVANCED_FACE('',(#112,#33,#34,#35),#599,.T.);
#627=ADVANCED_FACE('',(#113),#84,.F.);
#628=ADVANCED_FACE('',(#114),#85,.F.);
#629=ADVANCED_FACE('',(#115),#86,.F.);
#630=ADVANCED_FACE('',(#116),#87,.F.);
#631=ADVANCED_FACE('',(#117,#36,#37,#38),#600,.T.);
#632=ADVANCED_FACE('',(#118,#39),#601,.T.);
#633=CLOSED_SHELL('',(#602,#603,#604,#605,#606,#607,#608,#609,#610,#611,
#612,#613,#614,#615,#616,#617,#618,#619,#620,#621,#622,#623,#624,#625,#626,
#627,#628,#629,#630,#631,#632));
#634=DERIVED_UNIT_ELEMENT(#636,1.);
#635=DERIVED_UNIT_ELEMENT(#1067,-3.);
#636=(
MASS_UNIT()
NAMED_UNIT(*)
SI_UNIT(.KILO.,.GRAM.)
);
#637=DERIVED_UNIT((#634,#635));
#638=MEASURE_REPRESENTATION_ITEM('density measure',
POSITIVE_RATIO_MEASURE(7850.),#637);
#639=PROPERTY_DEFINITION_REPRESENTATION(#644,#641);
#640=PROPERTY_DEFINITION_REPRESENTATION(#645,#642);
#641=REPRESENTATION('material name',(#643),#1064);
#642=REPRESENTATION('density',(#638),#1064);
#643=DESCRIPTIVE_REPRESENTATION_ITEM('Steel','Steel');
#644=PROPERTY_DEFINITION('material property','material name',#1074);
#645=PROPERTY_DEFINITION('material property','density of part',#1074);
#646=AXIS2_PLACEMENT_3D('',#890,#710,#711);
#647=AXIS2_PLACEMENT_3D('',#891,#712,#713);
#648=AXIS2_PLACEMENT_3D('',#900,#718,#719);
#649=AXIS2_PLACEMENT_3D('',#903,#720,#721);
#650=AXIS2_PLACEMENT_3D('',#907,#723,#724);
#651=AXIS2_PLACEMENT_3D('',#909,#726,#727);
#652=AXIS2_PLACEMENT_3D('',#911,#728,#729);
#653=AXIS2_PLACEMENT_3D('',#914,#731,#732);
#654=AXIS2_PLACEMENT_3D('',#915,#733,#734);
#655=AXIS2_PLACEMENT_3D('',#917,#735,#736);
#656=AXIS2_PLACEMENT_3D('',#920,#738,#739);
#657=AXIS2_PLACEMENT_3D('',#921,#740,#741);
#658=AXIS2_PLACEMENT_3D('',#930,#746,#747);
#659=AXIS2_PLACEMENT_3D('',#934,#750,#751);
#660=AXIS2_PLACEMENT_3D('',#936,#752,#753);
#661=AXIS2_PLACEMENT_3D('',#937,#754,#755);
#662=AXIS2_PLACEMENT_3D('',#940,#756,#757);
#663=AXIS2_PLACEMENT_3D('',#944,#759,#760);
#664=AXIS2_PLACEMENT_3D('',#946,#762,#763);
#665=AXIS2_PLACEMENT_3D('',#950,#766,#767);
#666=AXIS2_PLACEMENT_3D('',#952,#768,#769);
#667=AXIS2_PLACEMENT_3D('',#953,#770,#771);
#668=AXIS2_PLACEMENT_3D('',#955,#773,#774);
#669=AXIS2_PLACEMENT_3D('',#957,#776,#777);
#670=AXIS2_PLACEMENT_3D('',#959,#778,#779);
#671=AXIS2_PLACEMENT_3D('',#962,#781,#782);
#672=AXIS2_PLACEMENT_3D('',#963,#783,#784);
#673=AXIS2_PLACEMENT_3D('',#972,#789,#790);
#674=AXIS2_PLACEMENT_3D('',#979,#794,#795);
#675=AXIS2_PLACEMENT_3D('',#981,#796,#797);
#676=AXIS2_PLACEMENT_3D('',#982,#798,#799);
#677=AXIS2_PLACEMENT_3D('',#984,#800,#801);
#678=AXIS2_PLACEMENT_3D('',#986,#802,#803);
#679=AXIS2_PLACEMENT_3D('',#988,#805,#806);
#680=AXIS2_PLACEMENT_3D('',#990,#807,#808);
#681=AXIS2_PLACEMENT_3D('',#993,#810,#811);
#682=AXIS2_PLACEMENT_3D('',#994,#812,#813);
#683=AXIS2_PLACEMENT_3D('',#996,#814,#815);
#684=AXIS2_PLACEMENT_3D('',#998,#817,#818);
#685=AXIS2_PLACEMENT_3D('',#1000,#819,#820);
#686=AXIS2_PLACEMENT_3D('',#1002,#822,#823);
#687=AXIS2_PLACEMENT_3D('',#1005,#826,#827);
#688=AXIS2_PLACEMENT_3D('',#1014,#832,#833);
#689=AXIS2_PLACEMENT_3D('',#1017,#836,#837);
#690=AXIS2_PLACEMENT_3D('',#1020,#839,#840);
#691=AXIS2_PLACEMENT_3D('',#1022,#841,#842);
#692=AXIS2_PLACEMENT_3D('',#1023,#843,#844);
#693=AXIS2_PLACEMENT_3D('',#1027,#846,#847);
#694=AXIS2_PLACEMENT_3D('',#1029,#849,#850);
#695=AXIS2_PLACEMENT_3D('',#1034,#853,#854);
#696=AXIS2_PLACEMENT_3D('',#1036,#855,#856);
#697=AXIS2_PLACEMENT_3D('',#1037,#857,#858);
#698=AXIS2_PLACEMENT_3D('',#1040,#860,#861);
#699=AXIS2_PLACEMENT_3D('',#1041,#862,#863);
#700=AXIS2_PLACEMENT_3D('',#1044,#865,#866);
#701=AXIS2_PLACEMENT_3D('',#1046,#867,#868);
#702=AXIS2_PLACEMENT_3D('',#1047,#869,#870);
#703=AXIS2_PLACEMENT_3D('',#1049,#872,#873);
#704=AXIS2_PLACEMENT_3D('',#1051,#875,#876);
#705=AXIS2_PLACEMENT_3D('',#1053,#877,#878);
#706=AXIS2_PLACEMENT_3D('',#1055,#880,#881);
#707=AXIS2_PLACEMENT_3D('',#1057,#882,#883);
#708=AXIS2_PLACEMENT_3D('',#1059,#885,#886);
#709=AXIS2_PLACEMENT_3D('',#1061,#888,#889);
#710=DIRECTION('axis',(0.,0.,1.));
#711=DIRECTION('refdir',(1.,0.,0.));
#712=DIRECTION('center_axis',(-0.707106781186546,-0.707106781186549,0.));
#713=DIRECTION('ref_axis',(0.,0.,-1.));
#714=DIRECTION('',(0.707106781186549,-0.707106781186546,7.7234303775109E-18));
#715=DIRECTION('',(0.,0.,1.));
#716=DIRECTION('',(-0.707106781186549,0.707106781186546,0.));
#717=DIRECTION('',(0.,0.,-1.));
#718=DIRECTION('center_axis',(0.,0.,-1.));
#719=DIRECTION('ref_axis',(-1.,0.,0.));
#720=DIRECTION('center_axis',(0.,0.,1.));
#721=DIRECTION('ref_axis',(-1.,0.,0.));
#722=DIRECTION('',(0.,0.,-1.));
#723=DIRECTION('center_axis',(0.,-1.09225799879203E-17,-1.));
#724=DIRECTION('ref_axis',(-1.,0.,0.));
#725=DIRECTION('',(0.,0.,-1.));
#726=DIRECTION('center_axis',(1.93082265152201E-16,1.,0.));
#727=DIRECTION('ref_axis',(0.,0.,1.));
#728=DIRECTION('center_axis',(2.01858731750028E-16,1.,0.));
#729=DIRECTION('ref_axis',(0.,0.,1.));
#730=DIRECTION('',(1.93082265152201E-16,1.,0.));
#731=DIRECTION('center_axis',(0.,1.,0.));
#732=DIRECTION('ref_axis',(0.,0.,1.));
#733=DIRECTION('center_axis',(1.,-1.93082265152239E-16,0.));
#734=DIRECTION('ref_axis',(-1.93082265152239E-16,-1.,0.));
#735=DIRECTION('center_axis',(1.,-2.01858731750028E-16,0.));
#736=DIRECTION('ref_axis',(-1.93082265152239E-16,-1.,0.));
#737=DIRECTION('',(1.,-1.93082265152239E-16,0.));
#738=DIRECTION('center_axis',(1.,8.54017711250162E-17,0.));
#739=DIRECTION('ref_axis',(-1.93082265152239E-16,-1.,0.));
#740=DIRECTION('center_axis',(-0.707106781186546,0.707106781186549,0.));
#741=DIRECTION('ref_axis',(0.,0.,-1.));
#742=DIRECTION('',(-0.707106781186549,-0.707106781186546,7.7234303775109E-18));
#743=DIRECTION('',(0.,0.,-1.));
#744=DIRECTION('',(0.707106781186549,0.707106781186546,0.));
#745=DIRECTION('',(0.,0.,1.));
#746=DIRECTION('center_axis',(-2.01858731750028E-16,1.,0.));
#747=DIRECTION('ref_axis',(1.,2.01858731750028E-16,0.));
#748=DIRECTION('',(1.,2.01858731750028E-16,0.));
#749=DIRECTION('',(-1.,-2.01858731750028E-16,2.20481814379983E-33));
#750=DIRECTION('center_axis',(2.01858731750028E-16,-1.,0.));
#751=DIRECTION('ref_axis',(0.,0.,1.));
#752=DIRECTION('center_axis',(2.01858731750028E-16,-1.,0.));
#753=DIRECTION('ref_axis',(0.,0.,1.));
#754=DIRECTION('center_axis',(0.,0.,1.));
#755=DIRECTION('ref_axis',(1.,0.,0.));
#756=DIRECTION('center_axis',(0.,0.,-1.));
#757=DIRECTION('ref_axis',(1.,0.,0.));
#758=DIRECTION('',(0.,0.,-1.));
#759=DIRECTION('center_axis',(0.,1.09225799879203E-17,1.));
#760=DIRECTION('ref_axis',(1.,0.,0.));
#761=DIRECTION('',(0.,0.,-1.));
#762=DIRECTION('center_axis',(0.,-1.,0.));
#763=DIRECTION('ref_axis',(-1.,0.,0.));
#764=DIRECTION('',(1.,0.,0.));
#765=DIRECTION('',(-1.,0.,0.));
#766=DIRECTION('center_axis',(0.,1.,0.));
#767=DIRECTION('ref_axis',(0.,0.,1.));
#768=DIRECTION('center_axis',(0.,-1.,0.));
#769=DIRECTION('ref_axis',(0.,0.,1.));
#770=DIRECTION('center_axis',(1.93082265152201E-16,-1.,0.));
#771=DIRECTION('ref_axis',(0.,0.,1.));
#772=DIRECTION('',(-1.93082265152201E-16,1.,0.));
#773=DIRECTION('center_axis',(1.93082265152201E-16,-1.,0.));
#774=DIRECTION('ref_axis',(0.,0.,1.));
#775=DIRECTION('',(-1.93082265152201E-16,1.,0.));
#776=DIRECTION('center_axis',(1.,1.93082265152239E-16,0.));
#777=DIRECTION('ref_axis',(1.93082265152239E-16,-1.,0.));
#778=DIRECTION('center_axis',(1.,2.01858731750028E-16,0.));
#779=DIRECTION('ref_axis',(1.93082265152239E-16,-1.,0.));
#780=DIRECTION('',(-1.,-1.93082265152239E-16,0.));
#781=DIRECTION('center_axis',(1.,-8.54017711250162E-17,0.));
#782=DIRECTION('ref_axis',(1.93082265152239E-16,-1.,0.));
#783=DIRECTION('center_axis',(0.707106781186546,-0.707106781186549,0.));
#784=DIRECTION('ref_axis',(0.,0.,-1.));
#785=DIRECTION('',(0.707106781186549,0.707106781186546,7.7234303775109E-18));
#786=DIRECTION('',(0.,0.,-1.));
#787=DIRECTION('',(-0.707106781186549,-0.707106781186546,0.));
#788=DIRECTION('',(0.,0.,1.));
#789=DIRECTION('center_axis',(-1.,8.54017711250162E-17,0.));
#790=DIRECTION('ref_axis',(8.54017711250162E-17,1.,0.));
#791=DIRECTION('',(-8.54017711250162E-17,-1.,-1.09225799879203E-17));
#792=DIRECTION('',(0.,0.,-1.));
#793=DIRECTION('',(8.54017711250162E-17,1.,0.));
#794=DIRECTION('center_axis',(-1.,8.54017711250162E-17,0.));
#795=DIRECTION('ref_axis',(-1.93082265152239E-16,1.,0.));
#796=DIRECTION('center_axis',(1.,8.54017711250162E-17,0.));
#797=DIRECTION('ref_axis',(-1.93082265152239E-16,-1.,0.));
#798=DIRECTION('center_axis',(0.,0.,1.));
#799=DIRECTION('ref_axis',(-1.,0.,0.));
#800=DIRECTION('center_axis',(0.,0.,-1.));
#801=DIRECTION('ref_axis',(-1.,0.,0.));
#802=DIRECTION('center_axis',(0.,-1.09225799879203E-17,1.));
#803=DIRECTION('ref_axis',(-1.,0.,0.));
#804=DIRECTION('',(0.,0.,-1.));
#805=DIRECTION('center_axis',(-1.93082265152201E-16,1.,0.));
#806=DIRECTION('ref_axis',(0.,0.,1.));
#807=DIRECTION('center_axis',(-2.01858731750028E-16,1.,0.));
#808=DIRECTION('ref_axis',(0.,0.,1.));
#809=DIRECTION('',(1.93082265152201E-16,-1.,0.));
#810=DIRECTION('center_axis',(0.,1.,0.));
#811=DIRECTION('ref_axis',(0.,0.,1.));
#812=DIRECTION('center_axis',(-1.,-1.93082265152239E-16,0.));
#813=DIRECTION('ref_axis',(-1.93082265152239E-16,1.,0.));
#814=DIRECTION('center_axis',(-1.,-2.01858731750028E-16,0.));
#815=DIRECTION('ref_axis',(-1.93082265152239E-16,1.,0.));
#816=DIRECTION('',(1.,1.93082265152239E-16,0.));
#817=DIRECTION('center_axis',(-1.,-1.93082265152239E-16,0.));
#818=DIRECTION('ref_axis',(-1.93082265152239E-16,1.,0.));
#819=DIRECTION('center_axis',(-1.,-2.01858731750028E-16,0.));
#820=DIRECTION('ref_axis',(-1.93082265152239E-16,1.,0.));
#821=DIRECTION('',(1.,1.93082265152239E-16,0.));
#822=DIRECTION('center_axis',(1.,2.01858731750028E-16,0.));
#823=DIRECTION('ref_axis',(2.01858731750028E-16,-1.,0.));
#824=DIRECTION('',(-2.01858731750028E-16,-1.,1.09225799879203E-17));
#825=DIRECTION('',(2.01858731750028E-16,-1.,0.));
#826=DIRECTION('center_axis',(0.707106781186546,0.707106781186549,0.));
#827=DIRECTION('ref_axis',(0.,0.,-1.));
#828=DIRECTION('',(-0.707106781186549,0.707106781186546,7.7234303775109E-18));
#829=DIRECTION('',(0.,0.,1.));
#830=DIRECTION('',(0.707106781186549,-0.707106781186546,0.));
#831=DIRECTION('',(0.,0.,-1.));
#832=DIRECTION('center_axis',(0.,0.,1.));
#833=DIRECTION('ref_axis',(1.,0.,0.));
#834=DIRECTION('',(1.,-2.01858731750028E-16,0.));
#835=DIRECTION('',(-2.01858731750028E-16,-1.,0.));
#836=DIRECTION('center_axis',(2.01858731750028E-16,1.,0.));
#837=DIRECTION('ref_axis',(1.,-2.01858731750028E-16,0.));
#838=DIRECTION('',(-1.,2.01858731750028E-16,2.20481814379983E-33));
#839=DIRECTION('center_axis',(-2.01858731750028E-16,-1.,0.));
#840=DIRECTION('ref_axis',(0.,0.,1.));
#841=DIRECTION('center_axis',(-2.01858731750028E-16,-1.,0.));
#842=DIRECTION('ref_axis',(0.,0.,1.));
#843=DIRECTION('center_axis',(0.,0.,1.));
#844=DIRECTION('ref_axis',(1.,0.,0.));
#845=DIRECTION('',(1.,0.,0.));
#846=DIRECTION('center_axis',(0.,0.,1.));
#847=DIRECTION('ref_axis',(1.,0.,0.));
#848=DIRECTION('',(-8.54017711250162E-17,1.,0.));
#849=DIRECTION('center_axis',(-1.,-8.54017711250162E-17,0.));
#850=DIRECTION('ref_axis',(-8.54017711250162E-17,1.,0.));
#851=DIRECTION('',(0.,0.,-1.));
#852=DIRECTION('',(8.54017711250162E-17,-1.,-1.09225799879203E-17));
#853=DIRECTION('center_axis',(-1.,-8.54017711250162E-17,0.));
#854=DIRECTION('ref_axis',(1.93082265152239E-16,1.,0.));
#855=DIRECTION('center_axis',(-1.,-8.54017711250162E-17,0.));
#856=DIRECTION('ref_axis',(1.93082265152239E-16,1.,0.));
#857=DIRECTION('center_axis',(0.,0.,-1.));
#858=DIRECTION('ref_axis',(1.,0.,0.));
#859=DIRECTION('',(0.,0.,-1.));
#860=DIRECTION('center_axis',(0.,1.09225799879203E-17,-1.));
#861=DIRECTION('ref_axis',(1.,0.,0.));
#862=DIRECTION('center_axis',(0.,-1.,0.));
#863=DIRECTION('ref_axis',(-1.,0.,0.));
#864=DIRECTION('',(-1.,0.,0.));
#865=DIRECTION('center_axis',(0.,1.,0.));
#866=DIRECTION('ref_axis',(0.,0.,1.));
#867=DIRECTION('center_axis',(0.,-1.,0.));
#868=DIRECTION('ref_axis',(0.,0.,1.));
#869=DIRECTION('center_axis',(-1.93082265152201E-16,-1.,0.));
#870=DIRECTION('ref_axis',(0.,0.,1.));
#871=DIRECTION('',(-1.93082265152201E-16,-1.,0.));
#872=DIRECTION('center_axis',(-1.93082265152201E-16,-1.,0.));
#873=DIRECTION('ref_axis',(0.,0.,1.));
#874=DIRECTION('',(-1.93082265152201E-16,-1.,0.));
#875=DIRECTION('center_axis',(-1.,1.93082265152239E-16,0.));
#876=DIRECTION('ref_axis',(1.93082265152239E-16,1.,0.));
#877=DIRECTION('center_axis',(1.,2.01858731750028E-16,0.));
#878=DIRECTION('ref_axis',(1.93082265152239E-16,-1.,0.));
#879=DIRECTION('',(-1.,1.93082265152239E-16,0.));
#880=DIRECTION('center_axis',(-1.,1.93082265152239E-16,0.));
#881=DIRECTION('ref_axis',(1.93082265152239E-16,1.,0.));
#882=DIRECTION('center_axis',(-1.,2.01858731750028E-16,0.));
#883=DIRECTION('ref_axis',(1.93082265152239E-16,1.,0.));
#884=DIRECTION('',(-1.,1.93082265152239E-16,0.));
#885=DIRECTION('center_axis',(1.,-2.01858731750028E-16,0.));
#886=DIRECTION('ref_axis',(-2.01858731750028E-16,-1.,0.));
#887=DIRECTION('',(2.01858731750028E-16,-1.,1.09225799879203E-17));
#888=DIRECTION('center_axis',(0.,1.09225799879203E-17,-1.));
#889=DIRECTION('ref_axis',(-1.,0.,0.));
#890=CARTESIAN_POINT('',(0.,0.,0.));
#891=CARTESIAN_POINT('Origin',(-21.5,-21.5,0.));
#892=CARTESIAN_POINT('',(-22.,-21.,-12.0000000000017));
#893=CARTESIAN_POINT('',(-21.,-22.,-12.0000000000017));
#894=CARTESIAN_POINT('',(-21.5,-21.5,-12.0000000000017));
#895=CARTESIAN_POINT('',(-21.,-22.,0.));
#896=CARTESIAN_POINT('',(-21.,-22.,0.));
#897=CARTESIAN_POINT('',(-22.,-21.,0.));
#898=CARTESIAN_POINT('',(-21.5,-21.5,0.));
#899=CARTESIAN_POINT('',(-22.,-21.,0.));
#900=CARTESIAN_POINT('Origin',(-13.,-12.9999999999955,0.));
#901=CARTESIAN_POINT('',(-18.2,-12.9999999999955,-1.8));
#902=CARTESIAN_POINT('',(-13.,-18.1999999999955,-1.8));
#903=CARTESIAN_POINT('Origin',(-13.,-12.9999999999955,-1.8));
#904=CARTESIAN_POINT('',(-13.,-18.1999999999955,-12.0000000000017));
#905=CARTESIAN_POINT('',(-13.,-18.1999999999955,0.));
#906=CARTESIAN_POINT('',(-18.2,-12.9999999999955,-12.0000000000017));
#907=CARTESIAN_POINT('Origin',(-13.,-12.9999999999955,-12.0000000000017));
#908=CARTESIAN_POINT('',(-18.2,-12.9999999999955,0.));
#909=CARTESIAN_POINT('Origin',(-11.,-19.5,-7.00000000000168));
#910=CARTESIAN_POINT('',(-11.,-22.,-8.65000000000169));
#911=CARTESIAN_POINT('Origin',(-11.,-22.,-7.00000000000168));
#912=CARTESIAN_POINT('',(-11.,-18.1999999999955,-8.65000000000169));
#913=CARTESIAN_POINT('',(-11.,-19.5,-8.65000000000169));
#914=CARTESIAN_POINT('Origin',(-11.,-18.1999999999955,-7.00000000000168));
#915=CARTESIAN_POINT('Origin',(-19.5,-10.9999999999965,-7.00000000000122));
#916=CARTESIAN_POINT('',(-22.,-9.3499999999965,-7.00000000000122));
#917=CARTESIAN_POINT('Origin',(-22.,-10.9999999999965,-7.00000000000122));
#918=CARTESIAN_POINT('',(-18.2,-9.3499999999965,-7.00000000000122));
#919=CARTESIAN_POINT('',(-19.5,-9.3499999999965,-7.00000000000122));
#920=CARTESIAN_POINT('Origin',(-18.2,-10.9999999999965,-7.00000000000122));
#921=CARTESIAN_POINT('Origin',(21.5,-21.5,0.));
#922=CARTESIAN_POINT('',(22.,-21.,-12.0000000000017));
#923=CARTESIAN_POINT('',(21.,-22.,-12.0000000000017));
#924=CARTESIAN_POINT('',(21.5,-21.5,-12.0000000000017));
#925=CARTESIAN_POINT('',(22.,-21.,0.));
#926=CARTESIAN_POINT('',(22.,-21.,0.));
#927=CARTESIAN_POINT('',(21.,-22.,0.));
#928=CARTESIAN_POINT('',(21.5,-21.5,0.));
#929=CARTESIAN_POINT('',(21.,-22.,0.));
#930=CARTESIAN_POINT('Origin',(0.,-22.,0.));
#931=CARTESIAN_POINT('',(0.,-22.,0.));
#932=CARTESIAN_POINT('',(5.5,-22.,-12.0000000000017));
#933=CARTESIAN_POINT('',(11.,-22.,-8.65000000000169));
#934=CARTESIAN_POINT('Origin',(11.,-22.,-7.00000000000168));
#935=CARTESIAN_POINT('',(2.07990109684403E-19,-22.,-8.65000000000168));
#936=CARTESIAN_POINT('Origin',(-2.01858731749629E-16,-22.,-7.00000000000168));
#937=CARTESIAN_POINT('Origin',(13.,-12.9999999999955,0.));
#938=CARTESIAN_POINT('',(18.2,-12.9999999999955,-1.8));
#939=CARTESIAN_POINT('',(13.,-18.1999999999955,-1.8));
#940=CARTESIAN_POINT('Origin',(13.,-12.9999999999955,-1.8));
#941=CARTESIAN_POINT('',(18.2,-12.9999999999955,-12.0000000000017));
#942=CARTESIAN_POINT('',(18.2,-12.9999999999955,0.));
#943=CARTESIAN_POINT('',(13.,-18.1999999999955,-12.0000000000017));
#944=CARTESIAN_POINT('Origin',(13.,-12.9999999999955,-12.0000000000017));
#945=CARTESIAN_POINT('',(13.,-18.1999999999955,0.));
#946=CARTESIAN_POINT('Origin',(13.,-18.1999999999955,0.));
#947=CARTESIAN_POINT('',(-11.,-18.1999999999955,-1.8));
#948=CARTESIAN_POINT('',(-12.,-18.1999999999955,-12.0000000000017));
#949=CARTESIAN_POINT('',(-7.33504617469544E-16,-18.1999999999955,-8.65000000000168));
#950=CARTESIAN_POINT('Origin',(9.35571339328857E-16,-18.1999999999955,-7.00000000000168));
#951=CARTESIAN_POINT('',(11.,-18.1999999999955,-8.65000000000169));
#952=CARTESIAN_POINT('Origin',(11.,-18.1999999999955,-7.00000000000168));
#953=CARTESIAN_POINT('Origin',(11.,-19.5,-7.00000000000168));
#954=CARTESIAN_POINT('',(11.,-19.5,-8.65000000000169));
#955=CARTESIAN_POINT('Origin',(-6.84564394630133E-16,-19.5,-7.00000000000168));
#956=CARTESIAN_POINT('',(-4.82497672770819E-16,-19.5,-8.65000000000168));
#957=CARTESIAN_POINT('Origin',(19.5,-10.9999999999965,-7.00000000000122));
#958=CARTESIAN_POINT('',(22.,-9.3499999999965,-7.00000000000122));
#959=CARTESIAN_POINT('Origin',(22.,-10.9999999999965,-7.00000000000122));
#960=CARTESIAN_POINT('',(18.2,-9.3499999999965,-7.00000000000122));
#961=CARTESIAN_POINT('',(19.5,-9.3499999999965,-7.00000000000122));
#962=CARTESIAN_POINT('Origin',(18.2,-10.9999999999965,-7.00000000000122));
#963=CARTESIAN_POINT('Origin',(-21.5,21.5,0.));
#964=CARTESIAN_POINT('',(-22.,21.,-12.0000000000017));
#965=CARTESIAN_POINT('',(-21.,22.,-12.0000000000017));
#966=CARTESIAN_POINT('',(-21.5,21.5,-12.0000000000017));
#967=CARTESIAN_POINT('',(-22.,21.,0.));
#968=CARTESIAN_POINT('',(-22.,21.,0.));
#969=CARTESIAN_POINT('',(-21.,22.,0.));
#970=CARTESIAN_POINT('',(-21.5,21.5,0.));
#971=CARTESIAN_POINT('',(-21.,22.,0.));
#972=CARTESIAN_POINT('Origin',(-18.2,1.70803542250032E-17,0.));
#973=CARTESIAN_POINT('',(-18.2,12.9999999999955,-12.0000000000017));
#974=CARTESIAN_POINT('',(-18.2,5.5,-12.0000000000017));
#975=CARTESIAN_POINT('',(-18.2,12.9999999999955,-1.8));
#976=CARTESIAN_POINT('',(-18.2,12.9999999999955,0.));
#977=CARTESIAN_POINT('',(-18.2,4.49999999999888,-1.8));
#978=CARTESIAN_POINT('',(-18.2,9.3499999999965,-7.00000000000122));
#979=CARTESIAN_POINT('Origin',(-18.2,10.9999999999965,-7.00000000000122));
#980=CARTESIAN_POINT('',(-18.2,-1.6500000000035,-7.00000000000047));
#981=CARTESIAN_POINT('Origin',(-18.2,3.50071192355101E-12,-7.00000000000047));
#982=CARTESIAN_POINT('Origin',(-13.,12.9999999999955,0.));
#983=CARTESIAN_POINT('',(-13.,18.1999999999955,-1.8));
#984=CARTESIAN_POINT('Origin',(-13.,12.9999999999955,-1.8));
#985=CARTESIAN_POINT('',(-13.,18.1999999999955,-12.0000000000017));
#986=CARTESIAN_POINT('Origin',(-13.,12.9999999999955,-12.0000000000017));
#987=CARTESIAN_POINT('',(-13.,18.1999999999955,0.));
#988=CARTESIAN_POINT('Origin',(-11.,19.5,-7.00000000000168));
#989=CARTESIAN_POINT('',(-11.,22.,-8.65000000000169));
#990=CARTESIAN_POINT('Origin',(-11.,22.,-7.00000000000168));
#991=CARTESIAN_POINT('',(-11.,18.1999999999955,-8.65000000000169));
#992=CARTESIAN_POINT('',(-11.,19.5,-8.65000000000169));
#993=CARTESIAN_POINT('Origin',(-11.,18.1999999999955,-7.00000000000168));
#994=CARTESIAN_POINT('Origin',(-19.5,-3.50046091660632E-12,-7.00000000000047));
#995=CARTESIAN_POINT('',(-22.,-1.6500000000035,-7.00000000000047));
#996=CARTESIAN_POINT('Origin',(-22.,-3.5009436222692E-12,-7.00000000000047));
#997=CARTESIAN_POINT('',(-19.5,-1.6500000000035,-7.00000000000047));
#998=CARTESIAN_POINT('Origin',(-19.5,10.9999999999965,-7.00000000000122));
#999=CARTESIAN_POINT('',(-22.,9.3499999999965,-7.00000000000122));
#1000=CARTESIAN_POINT('Origin',(-22.,10.9999999999965,-7.00000000000122));
#1001=CARTESIAN_POINT('',(-19.5,9.3499999999965,-7.00000000000122));
#1002=CARTESIAN_POINT('Origin',(-22.,22.,0.));
#1003=CARTESIAN_POINT('',(-22.,-16.5,-12.0000000000017));
#1004=CARTESIAN_POINT('',(-22.,22.,0.));
#1005=CARTESIAN_POINT('Origin',(21.5,21.5,0.));
#1006=CARTESIAN_POINT('',(22.,21.,-12.0000000000017));
#1007=CARTESIAN_POINT('',(21.,22.,-12.0000000000017));
#1008=CARTESIAN_POINT('',(21.5,21.5,-12.0000000000017));
#1009=CARTESIAN_POINT('',(21.,22.,0.));
#1010=CARTESIAN_POINT('',(21.,22.,0.));
#1011=CARTESIAN_POINT('',(22.,21.,0.));
#1012=CARTESIAN_POINT('',(21.5,21.5,0.));
#1013=CARTESIAN_POINT('',(22.,21.,0.));
#1014=CARTESIAN_POINT('Origin',(11.,11.,0.));
#1015=CARTESIAN_POINT('',(0.,22.,0.));
#1016=CARTESIAN_POINT('',(22.,22.,0.));
#1017=CARTESIAN_POINT('Origin',(0.,22.,0.));
#1018=CARTESIAN_POINT('',(5.5,22.,-12.0000000000017));
#1019=CARTESIAN_POINT('',(11.,22.,-8.65000000000169));
#1020=CARTESIAN_POINT('Origin',(11.,22.,-7.00000000000168));
#1021=CARTESIAN_POINT('',(2.07990109684403E-19,22.,-8.65000000000168));
#1022=CARTESIAN_POINT('Origin',(-2.01858731749629E-16,22.,-7.00000000000168));
#1023=CARTESIAN_POINT('Origin',(9.,8.99999999999777,-1.8));
#1024=CARTESIAN_POINT('',(13.,18.1999999999955,-1.8));
#1025=CARTESIAN_POINT('',(-11.,18.1999999999955,-1.8));
#1026=CARTESIAN_POINT('',(18.2,12.9999999999955,-1.8));
#1027=CARTESIAN_POINT('Origin',(13.,12.9999999999955,-1.8));
#1028=CARTESIAN_POINT('',(18.2,4.49999999999888,-1.8));
#1029=CARTESIAN_POINT('Origin',(18.2,1.70803542250032E-17,0.));
#1030=CARTESIAN_POINT('',(18.2,12.9999999999955,-12.0000000000017));
#1031=CARTESIAN_POINT('',(18.2,12.9999999999955,0.));
#1032=CARTESIAN_POINT('',(18.2,5.5,-12.0000000000017));
#1033=CARTESIAN_POINT('',(18.2,9.3499999999965,-7.00000000000122));
#1034=CARTESIAN_POINT('Origin',(18.2,10.9999999999965,-7.00000000000122));
#1035=CARTESIAN_POINT('',(18.2,-1.6500000000035,-7.00000000000047));
#1036=CARTESIAN_POINT('Origin',(18.2,-3.50020990966162E-12,-7.00000000000047));
#1037=CARTESIAN_POINT('Origin',(13.,12.9999999999955,0.));
#1038=CARTESIAN_POINT('',(13.,18.1999999999955,-12.0000000000017));
#1039=CARTESIAN_POINT('',(13.,18.1999999999955,0.));
#1040=CARTESIAN_POINT('Origin',(13.,12.9999999999955,-12.0000000000017));
#1041=CARTESIAN_POINT('Origin',(13.,18.1999999999955,0.));
#1042=CARTESIAN_POINT('',(-12.,18.1999999999955,-12.0000000000017));
#1043=CARTESIAN_POINT('',(-7.33504617469544E-16,18.1999999999955,-8.65000000000168));
#1044=CARTESIAN_POINT('Origin',(9.35571339328857E-16,18.1999999999955,-7.00000000000168));
#1045=CARTESIAN_POINT('',(11.,18.1999999999955,-8.65000000000169));
#1046=CARTESIAN_POINT('Origin',(11.,18.1999999999955,-7.00000000000168));
#1047=CARTESIAN_POINT('Origin',(11.,19.5,-7.00000000000168));
#1048=CARTESIAN_POINT('',(11.,19.5,-8.65000000000169));
#1049=CARTESIAN_POINT('Origin',(-6.84564394630133E-16,19.5,-7.00000000000168));
#1050=CARTESIAN_POINT('',(-4.82497672770819E-16,19.5,-8.65000000000168));
#1051=CARTESIAN_POINT('Origin',(19.5,-3.50046091660632E-12,-7.00000000000047));
#1052=CARTESIAN_POINT('',(22.,-1.6500000000035,-7.00000000000047));
#1053=CARTESIAN_POINT('Origin',(22.,3.50144563615859E-12,-7.00000000000047));
#1054=CARTESIAN_POINT('',(19.5,-1.6500000000035,-7.00000000000047));
#1055=CARTESIAN_POINT('Origin',(19.5,10.9999999999965,-7.00000000000122));
#1056=CARTESIAN_POINT('',(22.,9.3499999999965,-7.00000000000122));
#1057=CARTESIAN_POINT('Origin',(22.,10.9999999999965,-7.00000000000122));
#1058=CARTESIAN_POINT('',(19.5,9.3499999999965,-7.00000000000122));
#1059=CARTESIAN_POINT('Origin',(22.,22.,0.));
#1060=CARTESIAN_POINT('',(22.,-16.5,-12.0000000000017));
#1061=CARTESIAN_POINT('Origin',(11.,11.,-12.0000000000017));
#1062=UNCERTAINTY_MEASURE_WITH_UNIT(LENGTH_MEASURE(0.01),#1066,
'DISTANCE_ACCURACY_VALUE',
'Maximum model space distance between geometric entities at asserted c
onnectivities');
#1063=UNCERTAINTY_MEASURE_WITH_UNIT(LENGTH_MEASURE(0.01),#1066,
'DISTANCE_ACCURACY_VALUE',
'Maximum model space distance between geometric entities at asserted c
onnectivities');
#1064=(
GEOMETRIC_REPRESENTATION_CONTEXT(3)
GLOBAL_UNCERTAINTY_ASSIGNED_CONTEXT((#1062))
GLOBAL_UNIT_ASSIGNED_CONTEXT((#1066,#1068,#1069))
REPRESENTATION_CONTEXT('','3D')
);
#1065=(
GEOMETRIC_REPRESENTATION_CONTEXT(3)
GLOBAL_UNCERTAINTY_ASSIGNED_CONTEXT((#1063))
GLOBAL_UNIT_ASSIGNED_CONTEXT((#1066,#1068,#1069))
REPRESENTATION_CONTEXT('','3D')
);
#1066=(
LENGTH_UNIT()
NAMED_UNIT(*)
SI_UNIT(.MILLI.,.METRE.)
);
#1067=(
LENGTH_UNIT()
NAMED_UNIT(*)
SI_UNIT($,.METRE.)
);
#1068=(
NAMED_UNIT(*)
PLANE_ANGLE_UNIT()
SI_UNIT($,.RADIAN.)
);
#1069=(
NAMED_UNIT(*)
SI_UNIT($,.STERADIAN.)
SOLID_ANGLE_UNIT()
);
#1070=SHAPE_DEFINITION_REPRESENTATION(#1071,#1072);
#1071=PRODUCT_DEFINITION_SHAPE('',$,#1074);
#1072=SHAPE_REPRESENTATION('',(#646),#1064);
#1073=PRODUCT_DEFINITION_CONTEXT('part definition',#1078,'design');
#1074=PRODUCT_DEFINITION('v2_wrist_interface','v2_wrist_interface v4',#1075,
#1073);
#1075=PRODUCT_DEFINITION_FORMATION('',$,#1080);
#1076=PRODUCT_RELATED_PRODUCT_CATEGORY('v2_wrist_interface v4',
'v2_wrist_interface v4',(#1080));
#1077=APPLICATION_PROTOCOL_DEFINITION('international standard',
'automotive_design',2009,#1078);
#1078=APPLICATION_CONTEXT(
'Core Data for Automotive Mechanical Design Process');
#1079=PRODUCT_CONTEXT('part definition',#1078,'mechanical');
#1080=PRODUCT('v2_wrist_interface','v2_wrist_interface v4',$,(#1079));
#1081=PRESENTATION_STYLE_ASSIGNMENT((#1082));
#1082=SURFACE_STYLE_USAGE(.BOTH.,#1083);
#1083=SURFACE_SIDE_STYLE('',(#1084));
#1084=SURFACE_STYLE_FILL_AREA(#1085);
#1085=FILL_AREA_STYLE('Steel - Satin',(#1086));
#1086=FILL_AREA_STYLE_COLOUR('Steel - Satin',#1087);
#1087=COLOUR_RGB('Steel - Satin',0.627450980392157,0.627450980392157,0.627450980392157);
ENDSEC;
END-ISO-10303-21;
